<?xml version="1.0" encoding="UTF-8" standalone="no"?>
<svg
   xmlns:dc="http://purl.org/dc/elements/1.1/"
   xmlns:cc="http://creativecommons.org/ns#"
   xmlns:rdf="http://www.w3.org/1999/02/22-rdf-syntax-ns#"
   xmlns:svg="http://www.w3.org/2000/svg"
   xmlns="http://www.w3.org/2000/svg"
   xmlns:sodipodi="http://sodipodi.sourceforge.net/DTD/sodipodi-0.dtd"
   xmlns:inkscape="http://www.inkscape.org/namespaces/inkscape"
   width="1545px"
   height="1052px"
   viewBox="0 0 1545 1052"
   version="1.1"
   id="svg504"
   sodipodi:docname="reading.svg"
   inkscape:version="1.0.2 (e86c870879, 2021-01-15)">
  <metadata
     id="metadata510">
    <rdf:RDF>
      <cc:Work
         rdf:about="">
        <dc:format>image/svg+xml</dc:format>
        <dc:type
           rdf:resource="http://purl.org/dc/dcmitype/StillImage" />
      </cc:Work>
    </rdf:RDF>
  </metadata>
  <defs
     id="defs508" />
  <sodipodi:namedview
     pagecolor="#ffffff"
     bordercolor="#666666"
     borderopacity="1"
     objecttolerance="10"
     gridtolerance="10"
     guidetolerance="10"
     inkscape:pageopacity="0"
     inkscape:pageshadow="2"
     inkscape:window-width="2560"
     inkscape:window-height="1440"
     id="namedview506"
     showgrid="false"
     inkscape:zoom="0.77799353"
     inkscape:cx="525.06864"
     inkscape:cy="526"
     inkscape:window-x="0"
     inkscape:window-y="0"
     inkscape:window-maximized="0"
     inkscape:current-layer="svg504" />
  <title
     id="title2">reading</title>
  <g
     id="Group"
     fill="#e8e8e8"
     style="fill-rule:nonzero;stroke:none;stroke-width:1"
     transform="translate(25,20)">
    <path
       d="m 102.4,754.1 c 68,-33.7 146.2,-20.3 217.7,-7.6 38.1,6.8 76.1,13.1 114.7,16.3 41.3,3.5 82.8,4.2 124.2,2.2 80.1,-4 158.8,-19.8 237.8,-32.9 79,-13 159.6,-23.2 239.6,-13.7 77.9,9.3 153.9,42.2 233.3,35.6 8.9,-0.7 17.7,-2 26.5,-3.8 1.9,-0.4 1.1,-3.3 -0.8,-2.9 -79.9,16.2 -158.4,-15.8 -236.3,-28.7 -78,-12.9 -157.3,-5.8 -234.9,6.1 -80.6,12.3 -160.5,29.7 -241.9,35.8 -82.1,6.1 -163.8,0.3 -244.8,-14 -69.3,-12.3 -144.1,-28.5 -212.9,-5 -8.1,2.8 -16,6.1 -23.7,9.9 -1.7,1 -0.2,3.6 1.5,2.7 z"
       id="Path" />
    <path
       d="m 1043.1,885.8 c -3.7,-7.8 -24.9,-58.2 -5.6,-57 1.1,0.1 1.6,-1 1.4,-1.9 -2.5,-15.6 -2.2,-31.6 1,-47.2 1.5,-7.2 3.6,-14.2 6.3,-21 2.4,-6.1 8.1,-23.4 17.3,-15.3 5.6,5 5,15.8 5.6,22.6 0.6,8 0.9,16 0.9,24.1 -0.1,16.2 -1.5,32.4 -4.2,48.4 -1.5,8.5 -3.3,17 -5.5,25.3 -1.2,4.5 -2.5,8.9 -3.8,13.3 -1.3,4 -2.3,10.1 -6.9,11.6 -1.8,0.6 -1,3.5 0.8,2.9 6.4,-2.2 7.8,-9.8 9.5,-15.5 2.9,-9.4 5.3,-19 7.3,-28.7 3.8,-19.2 5.8,-38.8 5.8,-58.4 0,-10.2 -0.5,-20.4 -1.5,-30.5 -0.7,-6.4 -1.2,-14.2 -7,-18.3 -13.9,-9.8 -21.3,17.1 -24,25.8 -6.3,19.9 -7.7,40.9 -4.4,61.5 0.5,-0.6 1,-1.3 1.4,-1.9 -12,-0.7 -11.7,13.6 -10.2,21.6 2.6,13.8 7.1,27.2 13.2,39.9 0.9,2 3.4,0.4 2.6,-1.3 z"
       id="path5" />
    <path
       d="m 1073.3,803.5 c -0.3,-6.8 0.4,-13.6 2.3,-20.1 0.9,-3.2 2.1,-6.3 3.5,-9.4 0.7,-1.4 1.4,-2.8 2.2,-4.1 0.5,-0.7 1.1,-1.3 1.6,-2 3,-3 5.5,-2.5 7.4,1.6 -0.3,1.9 2.3,2.7 2.9,0.8 2,-6.6 5.9,-14.8 13.9,-15.2 8.5,-0.4 10.8,8.2 11.1,15 0.7,13.1 -1.6,26.5 -5,39.1 -7,25.7 -19.9,49.4 -32.7,72.7 -0.9,1.7 1.7,3.2 2.6,1.5 15.9,-29 32.3,-59.1 36.9,-92.2 1,-7.4 1.7,-15 1.1,-22.5 -0.4,-5.2 -1.8,-11 -6.2,-14.3 -4.2,-3.1 -9.9,-2.8 -14.3,-0.4 -5.7,3.2 -8.6,9.4 -10.4,15.4 1,0.3 1.9,0.5 2.9,0.8 0.5,-3.4 -1.4,-6.3 -4.9,-7.1 -3.8,-0.9 -7.1,1.6 -9.2,4.6 -7.1,9.9 -9.3,23.9 -8.8,35.7 0.1,2 3.1,2 3.1,0.1 z"
       id="path7" />
    <path
       d="m 1002.7,934.3 c 43,-23.5 94,-22 141.1,-15.2 51.3,7.4 102.9,21 155,14.5 28.9,-3.6 58.2,-13.5 87.4,-6.6 1.9,0.4 2.7,-2.4 0.8,-2.9 -25.3,-6 -50.7,0.3 -75.7,4.6 -27.1,4.6 -54.3,4.2 -81.6,0.9 -51.2,-6.1 -101.7,-20.3 -153.7,-17.6 -26,1.3 -51.8,7.1 -74.8,19.6 -1.7,1 -0.2,3.6 1.5,2.7 z"
       id="path9" />
    <path
       d="m 1134.4,865.4 c 38.3,3.5 75.5,-7.7 112.5,-16.1 19.5,-4.4 39.3,-8.2 59.3,-8.4 20.9,-0.3 41.4,3.9 61.9,7.4 21.8,3.8 43.8,6.6 65.8,2.5 1.9,-0.4 1.1,-3.2 -0.8,-2.9 -40.9,7.6 -80.9,-9.4 -121.6,-10.1 -38.1,-0.6 -74.8,11.6 -111.7,19.3 -21.5,4.5 -43.3,7.3 -65.3,5.3 -2,-0.1 -2,2.9 -0.1,3 z"
       id="path11" />
    <path
       d="m 245.4,732.5 c -3.5,-3.8 -6.6,-8.1 -8.9,-12.8 -1.1,-2.3 -2.1,-4.6 -2.8,-7.1 -0.6,-1.9 -1.2,-3.9 -0.8,-5.8 0.4,-2.2 2.8,-7.1 6.3,-3.9 1.1,1 2.9,0 2.5,-1.5 -5.5,-19.8 -6.8,-39.9 -8.2,-60.3 -1.4,-20.3 -2.9,-41.1 1.1,-61.2 1,-4.8 1.7,-11.8 7.1,-13.5 6.7,-2.2 11.4,4.9 13.3,10.2 3.4,9.2 5.5,19.2 7.7,28.8 4.7,20.4 7.9,41.1 9.8,61.9 2,22.9 2.3,45.9 1,68.8 -0.1,1.9 2.9,1.9 3,0 2.7,-46.6 -1.5,-93.6 -12.7,-138.9 -1.4,-5.6 -2.8,-11.1 -4.4,-16.6 -1.3,-4.4 -2.7,-8.9 -5.6,-12.4 -3.9,-4.6 -11.3,-7.1 -16.4,-2.9 -3,2.5 -4,6.7 -4.8,10.3 -1.2,5.3 -2.1,10.6 -2.6,16 -1.2,11.5 -1,23.1 -0.4,34.7 1.4,25.5 2.5,51.4 9.3,76.1 0.8,-0.5 1.7,-1 2.5,-1.5 -5.5,-5.1 -11.8,1.4 -11.5,7.4 0.4,9.7 7.2,19.6 13.5,26.4 1.2,1.4 3.3,-0.7 2,-2.2 z"
       id="path13" />
    <path
       d="m 274.7,646.1 c -4.1,-9.5 -1.8,-19.7 0.7,-29.3 2.2,-8.7 4.4,-17.2 4.4,-26.2 0.1,-10.2 -0.6,-20.1 2,-30.1 1.2,-4.6 2.9,-9 5,-13.3 0.9,-1.8 2,-4.7 3.5,-6 4.5,-4 6.8,3.4 7.8,6.2 6.8,18.7 8,38.9 8.3,58.6 0.4,20.7 -0.2,41.4 -1.7,62 -1.7,23.7 -4.7,47.3 -8.8,70.8 -0.3,1.9 2.6,2.7 2.9,0.8 8.3,-47 12.1,-95 10.3,-142.6 -0.4,-11 -1.3,-22.1 -3.5,-32.9 -1,-5.3 -2.4,-10.6 -4.1,-15.7 -1.2,-3.5 -2.4,-8.3 -5.6,-10.6 -7,-5.1 -11.7,7.4 -13.6,11.9 -3.9,9.1 -5.8,18.8 -5.8,28.7 0,6.6 0.5,13.2 -0.2,19.8 -0.7,6.4 -2.6,12.5 -4.1,18.7 -2.6,10.3 -4.5,20.7 -0.2,30.8 0.9,1.6 3.5,0.1 2.7,-1.6 z"
       id="path15" />
    <path
       d="m 139.1,512.8 c 57,-42.5 115.2,-85.3 181.3,-112.9 32.6,-13.6 67.1,-23.1 102.4,-25.9 39,-3.1 78.2,2.1 116,11.9 77.2,20.2 147.3,59.2 220.3,90.2 70.7,30.1 144.8,49.8 220.4,62.7 75.7,12.9 152.3,19.6 228.8,25.5 9.5,0.7 19,1.5 28.5,2.2 1.9,0.1 1.9,-2.9 0,-3 -78.3,-5.9 -156.7,-11.9 -234.3,-24 -76.7,-11.9 -152.8,-29.8 -224.9,-58.9 -73.2,-29.5 -142.4,-68.8 -218.1,-91.9 -36.8,-11.2 -75,-18.6 -113.6,-18.6 -35.5,0 -70.6,6.8 -104,18.4 -67.1,23.4 -126.5,64.3 -183.3,106.1 -7,5.2 -14,10.4 -21,15.6 -1.6,1.2 -0.1,3.8 1.5,2.6 z"
       id="path17" />
    <path
       d="m 1001.9,537 c 61.3,1.3 120.5,-16.5 179.3,-31.5 30.2,-7.7 60.6,-14.8 91.6,-18.1 30.9,-3.4 62.1,-2.6 92.7,3.2 34.6,6.5 67.9,19.1 98.2,36.9 1.7,1 3.2,-1.6 1.5,-2.6 -52.9,-31 -114.5,-45.8 -175.7,-41.9 -62.4,3.9 -121.9,24.4 -182.5,38.2 -34.5,7.9 -69.7,13.6 -105.2,12.9 -1.8,-0.1 -1.8,2.9 0.1,2.9 z"
       id="path19" />
    <path
       d="m 1320.1,744.8 c 42.8,-6.5 86.5,-6.7 129.4,-0.4 1.9,0.3 2.7,-2.6 0.8,-2.9 -43.5,-6.3 -87.5,-6.1 -131,0.4 -1.9,0.3 -1.1,3.1 0.8,2.9 z"
       id="path21" />
    <path
       d="M 3.3,653.1 C 35.6,613.9 70.6,576.9 108,542.6 c 1.4,-1.3 -0.7,-3.4 -2.1,-2.1 C 68.4,574.8 33.4,611.7 1.2,651 c -1.2,1.5 0.9,3.6 2.1,2.1 z"
       id="path23" />
    <path
       d="m 1165.3,108.1 c -13.5,4.7 -24.1,-6.6 -30.7,-16.9 -6.5,-10 -11.2,-20.9 -11.2,-33.1 0.1,-22.9 15.4,-43 36.6,-51 19.6,-7.3 43.5,-3.4 58.7,11.4 15.7,15.3 19.7,39.1 9.8,58.5 -2.8,5.5 -6.4,10.7 -10,15.7 -2.1,2.9 -4.1,6.1 -7,8.4 -3.4,2.6 -7.2,3.1 -11.3,3.6 -14,1.7 -28.1,3.2 -42.2,4.8 -1.9,0.2 -1.9,3.2 0,3 15.2,-1.7 30.7,-2.8 45.8,-5.2 12.3,-2 18.9,-14.4 24.7,-24.3 11.8,-20.1 10.9,-44.6 -4.3,-62.8 -15.1,-18.1 -41.7,-24 -63.7,-16.5 -22.1,7.6 -38.6,27.5 -40.1,51.1 -0.9,14.9 5,28.6 13.3,40.6 7.2,10.4 18.7,20.2 32.2,15.5 2,-0.5 1.2,-3.4 -0.6,-2.8 z"
       id="path25" />
    <path
       d="m 251.8,145.7 c -4.2,-10.3 6.8,-18.7 16.1,-19.4 9.9,-0.7 19.4,3.5 29,5.3 18.1,3.5 36.7,2.1 54.2,-3.7 16.8,-5.6 33.2,-14.8 51.3,-15.2 18.6,-0.3 35.2,10.7 54,8.4 9.1,-1.1 17.9,-4 27.1,-4.7 8.5,-0.7 21.3,0.9 24.3,10.6 3,9.7 -10.6,17.8 -17.8,21.3 -8,3.9 -16.9,6 -25.7,6.1 -9.4,0 -17.8,-2.8 -26.6,-5.7 -8.1,-2.7 -16.1,-4.3 -24.6,-4.1 -16.2,0.3 -31.8,5.5 -47.3,9.8 -9.6,2.7 -19.4,5.2 -29.4,6 -10.3,0.8 -19.7,-1 -29.6,-3.4 -9.8,-2.4 -18.4,-1.5 -28.3,-0.1 -5.9,0.8 -12.1,1.3 -17.6,-1.6 -4.9,-2.6 -8.9,-7.2 -7.7,-13.1 0.4,-1.9 -2.5,-2.7 -2.9,-0.8 -1.5,6.9 2.5,12.7 8.5,16.1 8.1,4.6 17.1,2.7 25.9,1.4 6.1,-0.9 11.8,-1.1 17.9,0.1 5.4,1.1 10.7,2.9 16.2,3.8 8.6,1.4 17.3,0.9 25.9,-0.4 19.6,-3.2 38.1,-11.1 57.7,-13.9 10.5,-1.5 20.9,-1.1 31.1,2 9.5,2.9 18.5,6.6 28.5,6.9 16.1,0.6 37.2,-5.8 46.6,-19.8 4.2,-6.3 2.9,-13.6 -2.8,-18.4 -6.3,-5.5 -15.1,-6.4 -23.1,-5.6 -10.3,1 -20.2,4.5 -30.5,5 -11.5,0.6 -22.1,-3.8 -33.1,-6.6 -20.5,-5.2 -38.5,1.5 -57.5,8.9 -11.6,4.5 -23.2,8.2 -35.7,9.3 -13.6,1.2 -26.6,-0.8 -39.8,-4.2 -9.4,-2.4 -20.2,-4.9 -29,0.6 -6.7,4.2 -11.3,12.1 -8.2,19.9 0.7,1.7 3.6,1 2.9,-0.8 z"
       id="path27" />
    <path
       d="m 1087.9,310.8 c 14.4,-14 35.3,-13.8 54.1,-12 22,2.1 43.3,4.9 65.5,2.5 11.4,-1.3 22.5,-3.7 33.6,-6.6 11.6,-3 23.5,-6.2 35.7,-5.8 12.3,0.4 23.8,5.3 35.9,7 11,1.5 22.1,0.2 33,-1.9 9.8,-1.8 19.5,-4.8 29.6,-4.3 8.9,0.4 19.8,4.9 19,15.7 -0.8,10.1 -12.2,17.1 -21.3,18.6 -11.6,1.8 -23.4,-2.4 -34.9,-3.3 -21.6,-1.7 -37.9,12.8 -58.4,16.5 -21.6,3.9 -41.9,-8 -62.4,-12.4 -25.2,-5.3 -49.1,5.7 -73.7,9.7 -12.3,2 -26.6,4.7 -39,2.2 -6.1,-1.3 -11.9,-4.3 -14.9,-10 -2.7,-5.3 -2.8,-11.7 1.7,-16 1.4,-1.3 -0.7,-3.5 -2.1,-2.1 -5.8,5.5 -5.5,14.2 -1.5,20.8 4.8,7.9 14,10.6 22.7,11.1 25.6,1.5 50.6,-7.2 75.2,-12.4 13.7,-2.9 26.3,-1.9 39.7,1.9 11.2,3.2 22,7.6 33.5,9.7 10.9,2 21.4,1.4 31.8,-2.4 10.9,-3.9 21.1,-10 32.5,-12.6 21.6,-4.9 45.9,11 65.3,-4.2 6.5,-5.1 11,-13.3 7.9,-21.5 -2.7,-7.1 -9.6,-10.6 -16.7,-11.6 -9.2,-1.4 -18.1,0.6 -27.1,2.5 -14.3,3 -28.9,5.4 -43.5,2.6 -12.6,-2.4 -24.5,-6.9 -37.6,-6.3 -12.4,0.6 -24.4,4.2 -36.4,7.2 -15.2,3.8 -30.7,6 -46.4,6.3 -13.6,0.2 -27,-1.5 -40.5,-3 -21.3,-2.4 -45.6,-3.9 -62.2,12.2 -1.6,1.1 0.5,3.2 1.9,1.9 z"
       id="path29" />
    <path
       d="m 436.6,990.7 c -4.5,-4.1 -8.4,-8.7 -11.6,-13.9 -1.5,-2.4 -2.9,-5 -4,-7.6 -0.6,-1.5 -1.6,-3.7 -1.4,-5.4 0.3,-2.9 3.1,-7.3 6.5,-4.6 1.3,1.1 3.2,-0.2 2.4,-1.8 -3.8,-7.4 -6.1,-15.9 -5.7,-24.3 0.1,-1.6 0.3,-3.1 0.9,-4.6 0.5,-1.3 1.2,-2.5 2.1,-3.6 1.8,-1.8 3.4,-1.8 4.8,0.2 3.7,2.7 5.2,7.9 6.9,12 6.1,14.6 10.6,29.8 13.7,45.3 1,-0.3 1.9,-0.5 2.9,-0.8 -2.7,-7.5 -4.8,-15.2 -6.1,-23.1 -0.9,-5.6 -2.5,-24.2 9,-18 7.4,4 8.8,15.9 8.8,23.4 0.1,8.3 -1.5,16.4 -3.1,24.5 -0.4,1.9 2.5,2.7 2.9,0.8 2,-10.3 4.1,-21 2.8,-31.6 -1,-7.7 -4.4,-20 -13.7,-21.2 -7.4,-0.9 -10.4,6.6 -10.6,12.7 -0.4,11.1 3.4,23.1 7.1,33.4 0.7,1.8 3.3,1.1 2.9,-0.8 -2.3,-11.6 -5.5,-23.1 -9.5,-34.2 -1.8,-5 -3.7,-9.9 -5.9,-14.8 -1.6,-3.7 -3.2,-9 -7.1,-11.1 -6.2,-3.4 -10.6,3.5 -11.6,8.7 -1.8,9.5 1.5,20.4 5.7,28.8 l 2.4,-1.8 c -6.1,-5.1 -12.3,2.2 -11.4,8.6 1.5,10.2 10.5,20.3 17.7,27.1 1.5,1.1 3.6,-1 2.2,-2.3 z"
       id="path31" />
    <path
       d="m 316.2,238 c 22.2,-4.5 44.8,-9 67.6,-7 21.9,1.9 42.6,9.7 63.8,15.1 41.4,10.4 84.3,14.1 126.9,14 24.4,-0.1 48.7,-1.3 73,-3.3 1.9,-0.2 1.9,-3.2 0,-3 -43.4,3.4 -87.2,4.8 -130.7,0.8 -22.1,-2 -44.1,-5.5 -65.7,-10.7 -20.6,-5 -40.6,-12.5 -61.7,-15.2 -24.9,-3.2 -49.7,1.6 -74,6.5 -1.9,0.3 -1.1,3.2 0.8,2.8 z"
       id="path33" />
    <path
       d="m 550.2,238.2 c 73.4,-3.8 144.7,-28.8 218.7,-24.2 1.9,0.1 1.9,-2.9 0,-3 -73.9,-4.6 -145.3,20.5 -218.7,24.2 -2,0.1 -2,3.1 0,3 z"
       id="path35" />
    <path
       d="m 1154.1,737.4 c -2.9,-7.3 -4.4,-15 -4.3,-22.9 0,-4 0.5,-8 1.4,-11.9 0.8,-3.6 4.8,-12.9 9.4,-7 0.8,1 2.7,0.2 2.6,-1.1 -1,-8.6 -0.8,-17.2 0.8,-25.7 0.7,-3.7 1.7,-7.4 3,-11 0.8,-2.2 1.6,-4.6 2.7,-6.7 1.6,-3 3.4,-3.8 6.4,-5.3 5.4,-2.5 5.5,-9 6.8,-14.2 1.8,-7.1 3.9,-14.3 8,-20.4 2.4,-3.6 6.9,-9.4 11.8,-8.1 3.9,1 5.3,5.2 6,8.8 1.6,7.9 0.5,16.7 0.1,24.7 -0.9,17.7 -3.2,35.4 -6.8,52.7 -4,19 -9.7,37.6 -16.8,55.7 -0.7,1.8 2.2,2.6 2.9,0.8 14.8,-37.4 23.1,-77.3 24.1,-117.6 0.2,-7.8 1.2,-33.8 -14.2,-27.8 -6.5,2.6 -10.9,10.5 -13.5,16.6 -1.5,3.5 -2.6,7.1 -3.6,10.7 -1.5,5.5 -1.5,12.3 -6.8,15.5 -3.1,1.9 -5.1,2.7 -6.9,6.3 -2.1,4.1 -3.6,8.8 -4.8,13.3 -2.7,10.3 -3.4,21 -2.1,31.6 0.9,-0.4 1.7,-0.7 2.6,-1.1 -2,-2.5 -5.3,-3.1 -8.2,-1.8 -3.9,1.8 -5.3,6.3 -6.2,10.1 -2.8,12.1 -1.6,24.8 2.9,36.4 0.5,2 3.4,1.2 2.7,-0.6 z"
       id="path37" />
    <path
       d="m 1125.7,732.2 c -4.3,-6.7 -8.5,-13.7 -10.7,-21.5 -1,-3.6 -1.6,-7.3 -1.4,-11 0.3,-4.1 2,-7.3 3.4,-11.1 2.2,-6.1 -1.3,-11.9 -2.7,-17.8 -0.7,-2.8 -4.8,-27.7 4,-24.3 1.1,0.4 2.1,-0.8 1.8,-1.8 -2.9,-12.9 -5.9,-26.6 -1.8,-39.5 1.8,-5.7 9.1,-20.5 16.6,-13.7 4.6,4.2 7.2,12 9.3,17.6 9.2,25.3 13.2,53.4 15,80.2 0.1,1.9 3.1,1.9 3,0 -1.2,-17.5 -3.6,-34.9 -7.3,-52 -3.2,-15 -6.7,-31.7 -15.4,-44.7 -2.7,-4 -6.6,-7.4 -11.7,-5.3 -5.4,2.2 -9.1,8.8 -11.2,13.8 -5.9,14.3 -2.6,29.9 0.6,44.5 0.6,-0.6 1.2,-1.2 1.8,-1.8 -5.3,-2.1 -8.5,3.9 -9.3,8.4 -1.6,10 2.1,19.3 4.4,28.8 1.4,5.8 -2.1,9.9 -3.1,15.3 -0.8,3.8 -0.6,7.6 0.1,11.4 1.7,9.5 6.9,18.2 12,26.3 1,1.3 3.6,-0.2 2.6,-1.8 z"
       id="path39" />
    <path
       d="m 1206,681.9 c 2.7,-9.3 5.5,-18.6 11.2,-26.5 5.5,-7.6 11.9,-14.8 18,-21.9 3.2,-3.6 6.4,-7.2 9.9,-10.5 1.8,-1.7 3.6,-3.5 5.9,-4.7 4.5,-2.4 7.5,0.7 8.7,4.8 2.7,9.4 0.5,19.6 -1.9,28.9 -9.2,35.2 -25.2,68.5 -46.6,98 -1.1,1.6 1.5,3.1 2.6,1.5 19.7,-27.1 34.7,-57.4 44.3,-89.5 2.3,-7.7 4.6,-15.6 5.4,-23.6 0.7,-6.5 0.9,-15.5 -3,-21.1 -8.2,-11.6 -25.2,11.5 -29.7,16.8 -5.8,6.8 -12,13.6 -17.1,21 -5.3,7.8 -8,16.9 -10.6,25.9 -0.6,1.9 2.3,2.7 2.9,0.9 z"
       id="path41" />
    <path
       d="m 1200.2,604.3 c -3.8,46.6 -13.8,92.4 -29.7,136.3 -0.7,1.8 2.2,2.6 2.9,0.8 16,-44.2 26,-90.3 29.8,-137.1 0.1,-1.9 -2.9,-1.9 -3,0 z"
       id="path43" />
    <path
       d="m 1173,644.6 c 5.4,20.3 8.2,41 8.4,62 0,1.9 3,1.9 3,0 -0.2,-21.2 -3,-42.3 -8.5,-62.8 -0.5,-1.9 -3.4,-1.1 -2.9,0.8 z"
       id="path45" />
    <path
       d="m 1186.6,621.9 c 3.5,13.8 5.2,27.9 5.3,42.1 0,1.9 3,1.9 3,0 -0.1,-14.5 -1.9,-28.9 -5.4,-42.9 -0.5,-1.9 -3.4,-1.1 -2.9,0.8 z"
       id="path47" />
    <path
       d="m 1178.1,729.8 c 7.7,-6 14.6,-12.9 20.6,-20.5 1.2,-1.5 -0.9,-3.6 -2.1,-2.1 -6.1,7.7 -12.9,14.5 -20.6,20.5 -1.5,1.2 0.6,3.3 2.1,2.1 z"
       id="path49" />
    <path
       d="m 1126,589.9 c 8.7,36.3 15.5,73 20.2,110 0.2,1.9 3.2,1.9 3,0 -4.8,-37.3 -11.6,-74.3 -20.3,-110.8 -0.4,-1.9 -3.3,-1.1 -2.9,0.8 z"
       id="path51" />
    <path
       d="m 1114.1,624.3 c 8.8,5.3 16.3,12.1 22.3,20.5 1.1,1.6 3.7,0.1 2.6,-1.5 -6.3,-8.8 -14.1,-16 -23.3,-21.5 -1.8,-1.1 -3.3,1.5 -1.6,2.5 z"
       id="path53" />
    <path
       d="m 1152.4,645.2 c -3.6,9 -6.5,18.2 -8.7,27.7 -0.4,1.9 2.4,2.7 2.9,0.8 2.2,-9.4 5.1,-18.7 8.7,-27.7 0.7,-1.8 -2.2,-2.6 -2.9,-0.8 z"
       id="path55" />
    <path
       d="m 1113.9,690.6 c 11,3.1 21.7,6.7 32.3,10.9 1.8,0.7 2.6,-2.2 0.8,-2.9 -10.6,-4.2 -21.4,-7.8 -32.3,-10.9 -1.9,-0.5 -2.7,2.4 -0.8,2.9 z"
       id="path57" />
    <path
       d="m 1254.8,619.2 c -13.3,46.3 -50.1,81.8 -61.9,128.7 -0.5,1.9 2.4,2.7 2.9,0.8 11.8,-46.9 48.6,-82.4 61.9,-128.7 0.6,-1.9 -2.3,-2.7 -2.9,-0.8 z"
       id="path59" />
    <path
       d="m 1228,638.7 c -2.5,16.2 -5.1,32.4 -7.6,48.6 -0.3,1.9 2.6,2.7 2.9,0.8 2.5,-16.2 5.1,-32.4 7.6,-48.6 0.3,-1.9 -2.6,-2.7 -2.9,-0.8 z"
       id="path61" />
    <path
       d="m 1231,674.3 c 8.9,-6.4 18.2,-12.2 27.9,-17.5 1.7,-0.9 0.2,-3.5 -1.5,-2.6 -9.7,5.2 -19,11 -27.9,17.5 -1.6,1.2 -0.1,3.8 1.5,2.6 z"
       id="path63" />
    <path
       d="m 1202.3,732.3 c 9.1,-10.7 22.1,-16.1 34.9,-21.2 1.8,-0.7 1,-3.6 -0.8,-2.9 -13.2,5.3 -26.7,10.9 -36.2,22 -1.3,1.5 0.8,3.6 2.1,2.1 z"
       id="path65" />
    <path
       d="m 1057,741.8 c 3.7,23.4 0.6,46.9 -2.9,70.2 -3.4,22.9 -6.8,45.9 -10.2,68.8 -0.3,1.9 2.6,2.7 2.9,0.8 3.6,-24.2 7.3,-48.4 10.8,-72.6 3.3,-22.5 5.9,-45.3 2.3,-67.9 -0.4,-2 -3.2,-1.2 -2.9,0.7 z"
       id="path67" />
    <path
       d="m 1037.5,784.5 c 3.4,14 8,27.6 13.8,40.8 0.8,1.8 3.4,0.2 2.6,-1.5 -5.6,-13 -10.1,-26.3 -13.5,-40.1 -0.5,-1.8 -3.4,-1 -2.9,0.8 z"
       id="path69" />
    <path
       d="m 1067.6,756.1 c -1.4,9.1 -4.7,17.4 -9.9,24.9 -1.1,1.6 1.5,3.1 2.6,1.5 5.3,-7.7 8.8,-16.4 10.2,-25.7 0.2,-1.8 -2.7,-2.6 -2.9,-0.7 z"
       id="path71" />
    <path
       d="m 1108.9,757.6 c -12.3,42.7 -28,84.3 -46.8,124.6 -0.8,1.7 1.8,3.3 2.6,1.5 18.9,-40.5 34.7,-82.4 47.1,-125.3 0.5,-1.8 -2.4,-2.6 -2.9,-0.8 z"
       id="path73" />
    <path
       d="m 1101,755.8 c -0.4,9.7 -0.7,19.3 -1.1,29 -0.1,1.9 2.9,1.9 3,0 0.4,-9.7 0.7,-19.3 1.1,-29 0.1,-1.9 -2.9,-1.9 -3,0 z"
       id="path75" />
    <path
       d="m 1078.8,768.8 c -5.4,22.6 0,46.2 3.2,68.8 0.3,1.9 3.2,1.1 2.9,-0.8 -3.1,-22 -8.4,-45.1 -3.2,-67.2 0.5,-1.9 -2.4,-2.7 -2.9,-0.8 z"
       id="path77" />
    <path
       d="m 1074.4,860.9 c 9.7,-2.4 18.7,-6.5 26.8,-12.3 1.6,-1.1 0.1,-3.7 -1.5,-2.6 -7.9,5.6 -16.6,9.6 -26.1,12 -1.9,0.4 -1.1,3.3 0.8,2.9 z"
       id="path79" />
    <path
       d="m 240.9,567.7 c 10.1,54.6 16.4,109.9 18.7,165.3 0.1,1.9 3.1,1.9 3,0 -2.3,-55.8 -8.6,-111.3 -18.8,-166.1 -0.4,-1.9 -3.3,-1.1 -2.9,0.8 z"
       id="path81" />
    <path
       d="m 230,631.1 c 10.6,13.3 19.1,28 25.3,43.8 0.7,1.8 3.6,1 2.9,-0.8 -6.4,-16.3 -15.1,-31.4 -26,-45.1 -1.2,-1.5 -3.4,0.6 -2.2,2.1 z"
       id="path83" />
    <path
       d="m 260,594.4 c -3.6,14.9 -6.3,30 -8.2,45.2 -0.2,1.9 2.8,1.9 3,0 1.8,-14.9 4.5,-29.7 8.1,-44.4 0.4,-1.9 -2.5,-2.7 -2.9,-0.8 z"
       id="path85" />
    <path
       d="m 291.4,540.7 c 1.8,65.3 -1.4,130.6 -9.6,195.4 -0.2,1.9 2.8,1.9 3,0 8.2,-64.8 11.4,-130.1 9.6,-195.4 -0.1,-1.9 -3.1,-1.9 -3,0 z"
       id="path87" />
    <path
       d="m 274.6,609.4 c 7.2,17.1 12.2,35 14.9,53.4 0.3,1.9 3.2,1.1 2.9,-0.8 -2.7,-18.4 -7.7,-36.3 -14.9,-53.4 -0.8,-1.7 -3.7,-1 -2.9,0.8 z"
       id="path89" />
    <path
       d="m 286.1,722.5 c 4.3,-8.4 10,-15.7 17,-22 1.4,-1.3 -0.7,-3.4 -2.1,-2.1 -7.2,6.4 -13.1,14 -17.5,22.6 -0.9,1.7 1.7,3.2 2.6,1.5 z"
       id="path91" />
    <path
       d="m 281.8,551.8 c 2.6,8.3 5.5,16.4 8.7,24.5 0.7,1.8 3.6,1 2.9,-0.8 -3.3,-8 -6.2,-16.2 -8.7,-24.5 -0.6,-1.9 -3.5,-1.1 -2.9,0.8 z"
       id="path93" />
    <path
       d="m 67,945.8 c 65.6,-6.4 132,-4.4 197,6.2 18.3,3 36.6,6.7 54.7,11 1.9,0.4 2.7,-2.4 0.8,-2.9 -64.1,-15.3 -130,-22.3 -195.9,-20.8 -18.9,0.5 -37.8,1.6 -56.6,3.5 -1.9,0.1 -2,3.1 0,3 z"
       id="path95" />
    <path
       d="m 655,974.5 c 0.1,-4.3 10.8,-5.1 13.4,-4.8 4.4,0.4 8.6,2.7 11,6.4 7.9,12.2 -8.1,17.1 -17.3,14.1 -1.8,-0.6 -2.6,2.3 -0.8,2.9 6.4,2.2 14.9,1.9 20.1,-3.2 4.4,-4.3 3.5,-11.2 0.2,-15.9 -3.7,-5.2 -9.8,-7.8 -16.1,-7.4 -4.4,0.3 -13.4,2.3 -13.5,7.9 0,1.9 3,1.9 3,0 z"
       id="path97" />
    <path
       d="m 654.5,972.9 c 6.4,-9 19.8,-13.1 29.8,-16.3 11.1,-3.5 22.6,-5.6 34.3,-6.2 1.9,-0.1 1.9,-3.1 0,-3 -13.1,0.7 -26.1,3.1 -38.5,7.4 -10,3.5 -21.8,7.6 -28.2,16.6 -1.1,1.6 1.5,3.1 2.6,1.5 z"
       id="path99" />
    <path
       d="m 720.1,950.8 c 7.7,0.9 13.9,6.9 15.4,14.4 0.4,1.9 3.3,1.1 2.9,-0.8 -1.8,-9 -9.3,-15.5 -18.3,-16.6 -2,-0.2 -1.9,2.8 0,3 z"
       id="path101" />
    <path
       d="m 723.8,947.7 c 11.2,-7 22.1,2 24.4,13.3 0.4,1.9 3.3,1.1 2.9,-0.8 -2.8,-13.3 -16,-23.1 -28.8,-15.1 -1.6,1.1 -0.1,3.7 1.5,2.6 z"
       id="path103" />
    <path
       d="m 736.2,967.3 c 6.2,2 12.8,-1.5 15,-7.5 0.7,-1.8 -2.2,-2.6 -2.9,-0.8 -1.6,4.5 -6.8,6.9 -11.3,5.4 -1.9,-0.6 -2.7,2.3 -0.8,2.9 z"
       id="path105" />
    <path
       d="m 654.1,971.4 c -5.2,3 -4.9,10.1 -2.9,15 2.2,5.6 7.6,9.3 13.7,7.8 1.9,-0.5 1.1,-3.3 -0.8,-2.9 -4.7,1.1 -8.5,-1.9 -10.1,-6.1 -1.3,-3.4 -2.2,-9 1.7,-11.2 1.6,-1 0.1,-3.6 -1.6,-2.6 z"
       id="path107" />
    <path
       d="m 655.5,982.8 c -3,-8.1 11.6,-13 16.7,-8.4 3.2,2.9 2.4,7.5 -1,9.9 -1.5,1.1 -3.4,1.9 -5.3,1.5 -6.7,-1.3 -1.2,-9 2.1,-4.6 1.2,1.5 3.8,0 2.6,-1.5 -3.9,-5.1 -12.5,-2.5 -10.9,4.4 1.7,7.6 12.5,4.9 15.8,0.2 4.6,-6.6 -0.4,-14.6 -8,-14.7 -7.2,-0.1 -18.1,5.1 -14.8,13.9 0.6,1.9 3.5,1.1 2.8,-0.7 z"
       id="path109" />
    <path
       d="m 679.4,990.6 c 21,-4.5 41,-12.2 59.6,-22.9 1.7,-1 0.2,-3.6 -1.5,-2.6 -18.4,10.6 -38.2,18.1 -58.9,22.6 -1.9,0.4 -1.1,3.3 0.8,2.9 z"
       id="path111" />
    <path
       d="m 735.8,943 c 17,-14.3 34,-31.3 55.8,-37.8 1.8,-0.6 1.1,-3.4 -0.8,-2.9 -22.3,6.7 -39.7,24 -57.1,38.6 -1.5,1.2 0.7,3.3 2.1,2.1 z"
       id="path113" />
    <path
       d="m 791.4,906.3 c 11.2,3.8 19.3,13.8 20.5,25.6 0.2,1.9 3.2,1.9 3,0 -1.3,-13.2 -10.1,-24.3 -22.7,-28.5 -1.8,-0.6 -2.6,2.3 -0.8,2.9 z"
       id="path115" />
    <path
       d="m 750.9,962.7 c 20.5,-9.1 40.9,-18.6 61.1,-28.5 1.7,-0.8 0.2,-3.4 -1.5,-2.6 -20.2,9.9 -40.6,19.3 -61.1,28.5 -1.8,0.8 -0.2,3.4 1.5,2.6 z"
       id="path117" />
    <path
       d="m 722.9,949.1 c 0.7,-0.5 1.4,-0.9 2,-1.4 0.7,-0.5 1,-1.3 0.5,-2.1 -0.4,-0.7 -1.4,-1 -2.1,-0.5 -0.7,0.5 -1.4,0.9 -2,1.4 -0.7,0.5 -1,1.3 -0.5,2.1 0.4,0.6 1.4,1 2.1,0.5 z"
       id="path119" />
    <path
       d="m 426.2,924.3 c 1.9,22.4 6.9,44.3 15,65.2 0.7,1.8 3.6,1 2.9,-0.8 -8,-20.7 -13.1,-42.3 -14.9,-64.4 -0.1,-1.9 -3.1,-1.9 -3,0 z"
       id="path121" />
    <path
       d="m 421,969.2 c 6.2,3.2 11.7,7.4 16.6,12.5 1.3,1.4 3.4,-0.7 2.1,-2.1 -5,-5.3 -10.7,-9.6 -17.2,-12.9 -1.7,-1 -3.2,1.6 -1.5,2.5 z"
       id="path123" />
    <path
       d="m 442.9,954.2 c -4.3,6.2 -6.2,13.4 -5.5,20.9 0.2,1.9 3.2,1.9 3,0 -0.6,-7 1.1,-13.5 5.1,-19.4 1,-1.5 -1.6,-3 -2.6,-1.5 z"
       id="path125" />
    <path
       d="m 451.8,945.9 c 2.9,12.4 3.8,25 2.5,37.7 -0.2,1.9 2.8,1.9 3,0 1.2,-12.9 0.3,-25.8 -2.7,-38.5 -0.3,-1.8 -3.2,-1 -2.8,0.8 z"
       id="path127" />
    <path
       d="m 447.4,950.3 c 2.4,4.6 4.8,9.3 7.2,13.9 0.9,1.7 3.5,0.2 2.6,-1.5 -2.4,-4.6 -4.8,-9.3 -7.2,-13.9 -0.9,-1.7 -3.5,-0.2 -2.6,1.5 z"
       id="path129" />
  </g>
  <circle
     id="Oval"
     fill="#f24088"
     cx="531.59998"
     cy="326.79999"
     r="16.9"
     style="fill-rule:nonzero;stroke:none;stroke-width:1;fill:#006699;fill-opacity:1" />
  <circle
     id="circle133"
     fill="#161616"
     cx="1076.2"
     cy="691.59998"
     r="12.2"
     style="fill-rule:nonzero;stroke:none;stroke-width:1" />
  <circle
     id="circle135"
     fill="#161616"
     cx="1094"
     cy="675.20001"
     r="5"
     style="fill-rule:nonzero;stroke:none;stroke-width:1" />
  <circle
     id="circle137"
     fill="#161616"
     cx="285.29999"
     cy="368"
     r="8.6000004"
     style="fill-rule:nonzero;stroke:none;stroke-width:1" />
  <circle
     id="circle139"
     fill="#f24088"
     cx="317.70001"
     cy="385.79999"
     r="9.3999996"
     style="fill-rule:nonzero;stroke:none;stroke-width:1;fill:#006699;fill-opacity:1" />
  <circle
     id="circle141"
     fill="#f24088"
     cx="614"
     cy="599.09998"
     r="5.1999998"
     style="fill-rule:nonzero;stroke:none;stroke-width:1;fill:#006699;fill-opacity:1" />
  <circle
     id="circle143"
     fill="#f24088"
     cx="1019.5"
     cy="104.8"
     r="9"
     style="fill-rule:nonzero;stroke:none;stroke-width:1;fill:#006699;fill-opacity:1" />
  <circle
     id="circle145"
     fill="#f24088"
     cx="1059.5"
     cy="138"
     r="6.8000002"
     style="fill-rule:nonzero;stroke:none;stroke-width:1;fill:#006699;fill-opacity:1" />
  <circle
     id="circle147"
     fill="#f24088"
     cx="1052.5"
     cy="646.59998"
     r="7"
     style="fill-rule:nonzero;stroke:none;stroke-width:1;fill:#006699;fill-opacity:1" />
  <circle
     id="circle149"
     fill="#f24088"
     cx="584"
     cy="109.3"
     r="4.5"
     style="fill-rule:nonzero;stroke:none;stroke-width:1;fill:#006699;fill-opacity:1" />
  <path
     d="m 473.1,489.4 c -1.2,-1.6 0,-4.4 1.5,-5.3 1.9,-1.2 4.5,-0.6 6.5,-0.1 2.1,0.5 4,1.5 6,2 2.6,0.7 5.5,1 8.1,0 2.8,-1.1 4.2,-3.3 4.8,-6.1 0.6,-2.4 0.4,-5.4 2.4,-7.3 1.9,-1.9 4.9,-2.1 7.4,-2.1 6.4,0.1 12.7,3.7 16.2,-3.7 1.8,-4 2.1,-8.4 6.5,-10.7 5.3,-2.8 11.7,-0.4 16.9,1.4 1.8,0.6 2.6,-2.2 0.8,-2.9 -7.9,-2.8 -19.3,-5.4 -24.2,3.9 -0.8,1.6 -1.3,3.4 -1.9,5 -0.6,1.5 -1.3,4.1 -2.9,4.8 -1.8,0.8 -5.1,-0.1 -7,-0.4 -3.7,-0.5 -7.6,-0.9 -11.2,0.7 -3.6,1.7 -4.8,4.6 -5.5,8.4 -1.8,10.1 -9.8,5.4 -16.4,3.8 -3.6,-0.9 -7.5,-0.6 -10,2.4 -1.9,2.3 -2.4,5.2 -0.6,7.6 1.1,1.7 3.7,0.2 2.6,-1.4 z"
     id="path151"
     fill="#f24088"
     style="fill-rule:nonzero;stroke:none;stroke-width:1;fill:#006699;fill-opacity:1" />
  <path
     d="m 496.3,505.6 c 1,-5.8 5.5,-9 11.3,-8.7 3.2,0.1 6.7,1.2 9.9,0.2 2.2,-0.7 3.9,-2.2 4.8,-4.3 2.1,-4.6 2.1,-8.5 6.6,-11.9 3.8,-2.9 8.3,-3.8 12.9,-2.7 2.9,0.7 6,2 9,0.9 3.2,-1.2 4.7,-4.9 7.6,-6.8 3.7,-2.4 8.2,-3.2 12.4,-3.9 1.9,-0.3 1.1,-3.2 -0.8,-2.9 -3.9,0.7 -7.8,1.5 -11.3,3.2 -1.6,0.8 -3,1.7 -4.3,2.9 -2.6,2.4 -3.7,4.8 -8,4.6 -3.7,-0.1 -6.6,-1.9 -10.5,-1.4 -3.5,0.5 -6.8,2 -9.5,4.2 -2.5,2.1 -4.5,4.8 -5.5,8 -1.1,3.3 -1.8,7.3 -6.3,7.4 -2.1,0.1 -4.2,-0.4 -6.3,-0.5 -7.3,-0.6 -13.6,3.4 -14.9,10.8 -0.3,2 2.5,2.8 2.9,0.9 z"
     id="path153"
     fill="#f24088"
     style="fill-rule:nonzero;stroke:none;stroke-width:1;fill:#006699;fill-opacity:1" />
  <path
     d="m 1023.4,477 c 6.5,1.2 9.9,9.7 17.3,6.9 4.3,-1.6 6.9,-5.6 11.9,-5.7 5.5,-0.1 8,4.5 12.7,6 7.8,2.5 14,-6.1 21.5,-4.7 6.8,1.3 11,9.5 18.6,7.3 1.9,-0.5 1.1,-3.4 -0.8,-2.9 -6.7,1.9 -11.9,-7.4 -18.8,-7.6 -3.1,-0.1 -6.1,1.2 -8.8,2.4 -5.7,2.6 -9.3,4.2 -14.8,0.1 -5.5,-4.2 -11.8,-4.8 -17.7,-0.9 -1.8,1.2 -3.2,2.5 -5.3,3.1 -3.1,0.9 -5.1,-0.7 -7.4,-2.6 -2.4,-1.9 -4.6,-3.8 -7.7,-4.4 -1.8,-0.3 -2.6,2.6 -0.7,3 z"
     id="path155"
     fill="#f24088"
     style="fill-rule:nonzero;stroke:none;stroke-width:1;fill:#006699;fill-opacity:1" />
  <path
     d="m 1044,467.1 c 5.1,4.1 11,-1.6 16.4,1.8 5.1,3.2 8,4.2 13.8,2.2 3.2,-1.1 6.4,-2.7 9.9,-2.2 2.8,0.5 5,2.6 7.9,2.9 2.7,0.3 5,-1.2 7.4,-2.3 4.8,-2.1 9.5,-1.9 14,1 1.6,1.1 3.1,-1.5 1.5,-2.6 -4.7,-3 -10.1,-3.8 -15.4,-1.8 -1.6,0.6 -3.5,2.1 -5.2,2.4 -2.5,0.4 -4.5,-0.7 -6.7,-1.7 -2,-0.9 -3.9,-1.2 -6.1,-1 -2.8,0.3 -5.4,1.5 -8.1,2.3 -4.3,1.4 -7.1,1.2 -10.9,-1.5 -2.1,-1.5 -4,-2.3 -6.6,-2.2 -3,0.1 -7.1,2.6 -9.8,0.5 -1.5,-1.1 -3.6,1 -2.1,2.2 z"
     id="path157"
     fill="#f24088"
     style="fill-rule:nonzero;stroke:none;stroke-width:1;fill:#006699;fill-opacity:1" />
  <path
     d="m 714.1,556.8 c 0.4,-5.3 6.5,-5.1 9.7,-3.3 1.6,0.9 2.9,2.2 4.2,3.5 2.3,2.2 4.5,4.7 7.4,6.1 5.4,2.4 8.7,-0.5 13.2,-3.1 14.2,-8 24.7,18 39,8.9 0.8,-0.5 0.1,-1.8 -0.8,-1.3 -9.5,6.1 -18.4,-5.7 -26.3,-9.2 -2.6,-1.2 -5.4,-1.9 -8.2,-1.4 -4.1,0.7 -6.8,4.3 -10.7,5.3 -9.2,2.5 -12.7,-10.5 -21,-11.4 -4,-0.5 -7.8,1.9 -8.1,6 0,0.9 1.5,0.9 1.6,-0.1 z"
     id="path159"
     fill="#e8e8e8"
     style="fill-rule:nonzero;stroke:none;stroke-width:1" />
  <path
     d="m 967.9,614.1 c 1.8,-7.1 7.9,-10.8 15,-10.2 3.6,0.3 6.5,0.2 8.9,-2.9 2.8,-3.7 2.9,-8.7 6.3,-12.2 4,-4 10.1,-5.2 15.5,-6.2 0.9,-0.2 0.5,-1.6 -0.4,-1.4 -5,0.9 -10.4,2 -14.5,5.1 -3.9,3 -4.9,7.1 -6.8,11.4 -2.5,5.5 -6.3,4.5 -11.4,4.6 -2,0 -3.9,0.5 -5.7,1.3 -4.3,2 -7.2,5.7 -8.4,10.2 -0.2,0.9 1.2,1.3 1.5,0.3 z"
     id="path161"
     fill="#e8e8e8"
     style="fill-rule:nonzero;stroke:none;stroke-width:1" />
  <path
     d="m 1002.1,608.5 c 0,-5.1 3.1,-10 8,-11.6 3.5,-1.2 7.2,0.2 10.7,-1 5.6,-2 8.4,-9 14.7,-9.3 1,-0.1 1,-1.6 0,-1.5 -3.1,0.2 -5.4,1.6 -7.7,3.6 -1.8,1.6 -3.4,3.5 -5.5,4.7 -3.3,2.1 -6.3,1.2 -9.8,1.5 -7,0.6 -12,6.8 -12,13.6 0.1,1 1.6,1 1.6,0 z"
     id="path163"
     fill="#e8e8e8"
     style="fill-rule:nonzero;stroke:none;stroke-width:1" />
  <path
     d="m 634,174.9 c 1.6,4.8 5.1,11.1 11.1,8.1 3.6,-1.8 5.3,-5.7 9.6,-6.5 4.8,-0.9 9.8,1.5 12.1,5.8 0.6,1.2 2.3,0.8 2.7,-0.4 3,-8.7 14,-9.4 18.4,-1.5 0.9,1.7 3.5,0.2 2.6,-1.5 -5.7,-10.4 -20,-8.9 -23.8,2.2 0.9,-0.1 1.8,-0.2 2.7,-0.4 -2.6,-4.9 -7.8,-7.7 -13.3,-7.4 -2.5,0.1 -4.9,0.8 -6.9,2.3 -1.3,0.9 -2.3,2.6 -3.7,3.4 -1.4,0.8 -5.8,0.2 -7,-1 -0.9,-0.9 -1.3,-2.8 -1.6,-3.9 -0.6,-1.8 -3.5,-1 -2.9,0.8 z"
     id="path165"
     fill="#161616"
     style="fill-rule:nonzero;stroke:none;stroke-width:1" />
  <path
     d="m 677.8,161.7 c 1.9,1.5 3.7,1.5 6,0.8 3.1,-0.9 5.1,-2.8 7.8,0.7 0.9,1.2 1.2,2.8 2.4,3.9 2.2,2.2 5.4,2.5 8.4,2.2 3.5,-0.3 13.5,-2.7 13,3.8 -0.1,1.9 2.9,1.9 3,0 0.7,-9.2 -11.4,-6.9 -16.7,-6.7 -3.9,0.1 -5.7,-1.5 -7.5,-4.7 -0.8,-1.4 -1.6,-2.6 -3.1,-3.3 -3.4,-1.5 -8.6,3.1 -11.2,1.1 -1.5,-1.1 -3.7,1 -2.1,2.2 z"
     id="path167"
     fill="#161616"
     style="fill-rule:nonzero;stroke:none;stroke-width:1" />
  <path
     d="m 364.4,706.1 c -1.1,-3.5 -0.9,-7.1 1,-10.2 2,-3.2 5.1,-4.2 8,-6.1 3.7,-2.5 5.1,-5.9 5.7,-10.2 0.3,-2.3 0.3,-4.6 0.9,-6.9 1.1,-4 3.6,-5.8 7.3,-7.4 3.4,-1.4 6.5,-2.6 8.7,-5.7 1.1,-1.6 -1.5,-3.1 -2.6,-1.5 -3.2,4.4 -9.5,4.3 -13.3,8 -3.8,3.8 -3.2,9.2 -4.1,14 -1.3,7.3 -7.9,7.7 -12,12.6 -3.3,4 -4.1,9.4 -2.5,14.2 0.6,1.8 3.5,1 2.9,-0.8 z"
     id="path169"
     fill="#161616"
     style="fill-rule:nonzero;stroke:none;stroke-width:1" />
  <path
     d="m 365.8,672.9 c 7.4,-4.4 1.2,-15.2 8.7,-19.4 4,-2.3 7.6,-3.3 10.8,-6.9 3.1,-3.5 5.1,-7.7 7.1,-11.9 0.8,-1.7 -1.8,-3.3 -2.6,-1.5 -2,4.2 -4,8.4 -7.2,11.8 -3.4,3.7 -8,4.1 -11.7,7.1 -5.5,4.5 -1.1,14.8 -6.7,18.2 -1.6,1 -0.1,3.5 1.6,2.6 z"
     id="path171"
     fill="#161616"
     style="fill-rule:nonzero;stroke:none;stroke-width:1" />
  <path
     d="m 772.3,547.2 c -6.1,0.7 -11,-4.7 -10,-10.8 1,-5.8 6.5,-10.3 12.3,-10.7 4.7,-0.3 10,1.6 12.2,6.1 2.4,4.9 0.2,11.6 -4.9,13.5 -1.8,0.7 -1,3.6 0.8,2.9 6.1,-2.4 9.3,-9 7.7,-15.4 -1.9,-7.4 -10,-11 -17.2,-10 -7,1 -13.4,6.8 -14.1,14 -0.7,7.4 5.6,14.1 13.1,13.3 2,-0.1 2,-3.1 0.1,-2.9 z"
     id="path173"
     fill="#161616"
     style="fill-rule:nonzero;stroke:none;stroke-width:1" />
  <path
     d="m 317.3,877.4 c 6.3,-6.8 15.9,-16.3 28.8,-26 11.1,-8.4 20.1,-13.5 31.5,-19.9 16.3,-9.1 36.6,-20.2 60.3,-32.9 36.4,-3.4 67,-5.8 89.8,-7.5 42.4,-3.2 110.5,-8.3 188.5,-10.3 16.1,-0.4 31.5,-0.7 31.5,-0.7 43.6,-0.8 54.6,-0.1 100.1,-0.7 33.4,-0.4 33.2,-0.8 51.4,-0.7 27.4,0.2 49.9,1.2 65.1,2.1 9.1,0.7 27.6,2.1 45.9,4.1 3.6,0.4 8.9,1 15.8,2.7 8.3,2.1 14.9,4.8 19.2,6.9 -5.4,8.2 -10.9,16.4 -16.4,24.7 -18.1,26.8 -36.5,52.3 -54.8,76.8 -2.9,1.8 -8.2,4.6 -15.1,6.9 -14.7,4.8 -27.2,3.7 -31.5,3.4 -18,-1.3 -61.7,-0.5 -125.4,1.4 -28.3,-0.7 -56.7,-1.4 -85,-2.1 -8.2,12.6 -16.4,25.1 -24.7,37.7 -54.8,-3 -109.6,-5.9 -164.5,-8.9 11,-12.1 21.9,-24.2 32.9,-36.3 -81.2,-7 -162.3,-13.9 -243.4,-20.7 z"
     id="path175"
     fill="#ffffff"
     style="fill-rule:nonzero;stroke:none;stroke-width:1" />
  <path
     d="m 374.8,859.8 c 49.4,3.3 98.7,7.1 148,11.5 1.9,0.2 1.9,-2.8 0,-3 -49.3,-4.4 -98.6,-8.2 -148,-11.5 -1.9,-0.1 -1.9,2.9 0,3 z"
     id="path177"
     fill="#161616"
     style="fill-rule:nonzero;stroke:none;stroke-width:1" />
  <path
     d="m 755.2,884.7 c 51.6,-0.4 103.3,0.7 154.9,3.3 1.9,0.1 1.9,-2.9 0,-3 -51.6,-2.6 -103.2,-3.7 -154.9,-3.3 -1.9,0 -1.9,3 0,3 z"
     id="path179"
     fill="#161616"
     style="fill-rule:nonzero;stroke:none;stroke-width:1" />
  <path
     d="m 464.2,829.5 c 25,4.4 50.4,3.8 75.7,3.6 26.8,-0.2 53.6,0.4 80.4,1.3 52.9,1.9 105.8,5.4 158.7,7.6 30.4,1.3 60.9,2.1 91.3,2.1 1.9,0 1.9,-3 0,-3 -106,0.3 -211.6,-10.9 -317.5,-11 -29.3,0 -58.8,1.7 -87.8,-3.4 -1.8,-0.4 -2.7,2.5 -0.8,2.8 z"
     id="path181"
     fill="#161616"
     style="fill-rule:nonzero;stroke:none;stroke-width:1" />
  <path
     d="m 705.2,808.1 c 75.2,0.1 150.4,2.3 225.5,6.6 1.9,0.1 1.9,-2.9 0,-3 -75.1,-4.3 -150.3,-6.5 -225.5,-6.6 -1.9,0 -1.9,3 0,3 z"
     id="path183"
     fill="#161616"
     style="fill-rule:nonzero;stroke:none;stroke-width:1" />
  <path
     d="m 1044.2,793.6 c -22.2,33.9 -45.4,67 -69.7,99.3 -1.2,1.5 1.4,3 2.6,1.5 24.3,-32.3 47.6,-65.5 69.7,-99.3 1.1,-1.6 -1.5,-3.1 -2.6,-1.5 z"
     id="path185"
     fill="#161616"
     style="fill-rule:nonzero;stroke:none;stroke-width:1" />
  <path
     d="m 343,856.5 c 30.8,-21.3 62,-42.7 96.8,-57 1.8,-0.7 1,-3.6 -0.8,-2.9 -35.1,14.4 -66.5,35.9 -97.6,57.3 -1.5,1.1 0,3.7 1.6,2.6 z"
     id="path187"
     fill="#161616"
     style="fill-rule:nonzero;stroke:none;stroke-width:1" />
  <path
     d="m 436.9,799.9 c 79.4,-7.3 158.9,-12.6 238.5,-15.7 79.6,-3.1 159.3,-4.3 239,-3.1 22.3,0.3 44.6,0.9 66.8,2.9 21.4,1.9 43.8,4.1 63.8,12.4 1.8,0.7 2.6,-2.2 0.8,-2.9 -17,-7.1 -35.7,-9.4 -53.9,-11.4 -19.9,-2.2 -39.9,-3.2 -59.9,-3.7 -39.9,-1 -79.9,-0.9 -119.8,-0.5 -80,0.7 -160,3.6 -239.9,8.6 -45.2,2.8 -90.4,6.3 -135.5,10.5 -1.9,0.1 -1.9,3.1 0.1,2.9 z"
     id="path189"
     fill="#161616"
     style="fill-rule:nonzero;stroke:none;stroke-width:1" />
  <path
     d="m 719,907.2 c 74.5,2.5 149,2.6 223.4,-0.2 12.8,-0.5 27.1,-2 35,-13.4 1.1,-1.6 -1.5,-3.1 -2.6,-1.5 -7.9,11.3 -23.2,11.6 -35.6,12 -17.1,0.5 -34.2,1.2 -51.4,1.5 -36,0.7 -72,0.7 -108,0.1 -20.3,-0.3 -40.6,-0.9 -60.9,-1.5 -1.8,-0.1 -1.8,2.9 0.1,3 z"
     id="path191"
     fill="#161616"
     style="fill-rule:nonzero;stroke:none;stroke-width:1" />
  <path
     d="m 341.5,853.8 c -8.8,7.7 -17.6,15.4 -26.4,23.1 -1.1,0.9 -0.1,2.5 1.1,2.6 80.9,7 161.8,14 242.7,19.4 1.9,0.1 1.9,-2.9 0,-3 -81,-5.5 -161.9,-12.4 -242.7,-19.4 0.4,0.9 0.7,1.7 1.1,2.6 8.8,-7.7 17.6,-15.4 26.4,-23.1 1.3,-1.4 -0.8,-3.5 -2.2,-2.2 z"
     id="path193"
     fill="#161616"
     style="fill-rule:nonzero;stroke:none;stroke-width:1" />
  <path
     d="m 592.9,866.8 c -23.3,20.5 -45.2,42.4 -65.6,65.7 -1.3,1.4 0.8,3.6 2.1,2.1 20.4,-23.3 42.4,-45.3 65.6,-65.7 1.5,-1.3 -0.6,-3.4 -2.1,-2.1 z"
     id="path195"
     fill="#161616"
     style="fill-rule:nonzero;stroke:none;stroke-width:1" />
  <path
     d="m 594,868.9 c 48.7,-4.7 97.7,-3.5 146.1,3.7 1.9,0.3 2.7,-2.6 0.8,-2.9 -48.6,-7.3 -97.9,-8.6 -146.9,-3.8 -1.9,0.2 -1.9,3.2 0,3 z"
     id="path197"
     fill="#161616"
     style="fill-rule:nonzero;stroke:none;stroke-width:1" />
  <path
     d="m 738.6,871.6 c -16.4,23.5 -32.9,47 -49.3,70.5 -1.1,1.6 1.5,3.1 2.6,1.5 16.4,-23.5 32.9,-47 49.3,-70.5 1.1,-1.6 -1.5,-3.1 -2.6,-1.5 z"
     id="path199"
     fill="#161616"
     style="fill-rule:nonzero;stroke:none;stroke-width:1" />
  <path
     d="m 527.7,936 c 54,2.7 108.1,5.3 162.1,8 1.9,0.1 1.9,-2.9 0,-3 -54,-2.7 -108.1,-5.3 -162.1,-8 -1.9,-0.1 -1.9,2.9 0,3 z"
     id="path201"
     fill="#161616"
     style="fill-rule:nonzero;stroke:none;stroke-width:1" />
  <path
     d="m 569.6,917.2 c 8.4,1.5 16.7,2.9 25.1,4.4 1.9,0.3 2.7,-2.6 0.8,-2.9 -8.4,-1.5 -16.7,-2.9 -25.1,-4.4 -1.9,-0.3 -2.7,2.6 -0.8,2.9 z"
     id="path203"
     fill="#161616"
     style="fill-rule:nonzero;stroke:none;stroke-width:1" />
  <path
     d="m 589.1,908 c -5.1,5.3 -9.9,10.9 -14.4,16.8 -1.2,1.5 1.4,3 2.6,1.5 4.4,-5.6 9,-11 14,-16.2 1.2,-1.3 -0.9,-3.5 -2.2,-2.1 z"
     id="path205"
     fill="#161616"
     style="fill-rule:nonzero;stroke:none;stroke-width:1" />
  <path
     d="m 603.2,909.5 c 0.1,-5.2 4,-8.6 9.1,-8.5 2.5,0 4.8,0.8 7.3,0.4 4.6,-0.7 8.6,-3.6 10.7,-7.6 1.5,-2.7 1.9,-5.8 4.2,-8 2.5,-2.4 6,-3.5 9.4,-3.8 3.1,-0.3 6.5,-0.1 9.5,1 2.5,1 5.1,2.9 5.2,5.9 0.1,2.3 -1.3,4.7 -3.9,4.8 0.1,1 0.3,2 0.4,2.9 2.7,-0.4 5.7,2.5 6.5,4.8 0.4,1.1 0.5,2.5 0.4,3.6 -0.1,2.6 -1.4,5.3 -3.1,7.3 -1.7,2 -3.9,3.6 -6.4,4.3 -2.2,0.6 -2.6,0.7 -4.2,-1.1 -1.8,-2.1 -1,-2.5 0.9,-4.1 8.6,-7.2 15.7,2.2 24.5,2.5 6,0.2 11.7,-3.5 12.9,-9.6 0.6,-3 -0.3,-5.7 -1.8,-8.4 -1.7,-3 -2.7,-3.6 -2,-7.3 -0.5,-2.2 0.2,-3.3 2.1,-3.3 1.1,-0.5 2.1,-0.5 3.1,0.2 2.4,0.7 3.8,2.3 5.3,4.3 1.1,1.5 3.7,0.1 2.6,-1.5 -3.1,-4.3 -8.5,-8.4 -13.9,-5.2 -5.1,3 -3.3,8.3 -0.8,12.4 2.6,4.4 4.4,9 -0.2,13 -5.2,4.5 -11.1,1.5 -16.2,-1 -5.2,-2.5 -11,-2.8 -16,0.5 -3,1.9 -7.4,6.9 -4.1,10.5 3.6,3.8 11.1,0.6 14.3,-2 4.1,-3.3 6.8,-8.8 6,-14.2 -0.9,-5.4 -5.1,-9.6 -10.6,-8.7 -1.7,0.3 -1.3,3 0.4,2.9 6.1,-0.1 8.7,-7.5 5.5,-12.2 -4.4,-6.5 -15.4,-6.6 -22,-4.2 -3.3,1.2 -6.2,3.3 -8,6.4 -1.3,2.2 -1.7,4.9 -3.1,7 -2.2,3.2 -6.1,5.1 -10,5.1 -4.6,-0.1 -8.2,-1.4 -12.2,1.6 -3.1,2.3 -4.6,5.7 -4.6,9.4 -0.2,1.9 2.8,1.9 2.8,-0.1 z"
     id="path207"
     fill="#161616"
     style="fill-rule:nonzero;stroke:none;stroke-width:1" />
  <path
     d="m 763,346.6 c -0.2,23.9 -0.5,47.7 -0.7,71.6 56.2,-1.6 112.4,-3.3 168.5,-4.9 11.5,8.9 22.9,17.8 34.4,26.7 -3,-17.6 -6.1,-35.1 -9.1,-52.7 -0.9,-14.5 -1.9,-29 -2.8,-43.5 -63.4,0.9 -126.9,1.9 -190.3,2.8 z"
     id="path209"
     fill="#f24088"
     style="fill-rule:nonzero;stroke:none;stroke-width:1;fill:#006699;fill-opacity:1" />
  <path
     d="m 756.9,169.2 c -1.9,34.6 -3.8,69.1 -5.6,103.7 -9.9,12.3 -19.8,24.7 -29.7,37 11.8,-3.2 23.6,-6.4 35.4,-9.6 70.2,-2.4 140.4,-4.8 210.6,-7.2 -1.9,-41.5 -3.8,-83.1 -5.6,-124.6 -68.5,0.2 -136.8,0.4 -205.1,0.7 z"
     id="path211"
     fill="#f24088"
     style="fill-rule:nonzero;stroke:none;stroke-width:1;fill:#006699;fill-opacity:1" />
  <path
     d="m 874.8,215.2 c 1.4,24.9 19.3,45.4 43.8,50 1.9,0.3 2.7,-2.5 0.8,-2.9 -23.2,-4.3 -40.3,-23.5 -41.6,-47.1 -0.2,-2 -3.2,-2 -3,0 z"
     id="path213"
     fill="#ffffff"
     style="fill-rule:nonzero;stroke:none;stroke-width:1" />
  <path
     d="m 919.3,265.1 c 9.6,0.7 18.2,-13.4 21.7,-20.8 4.6,-10 6,-21 3.9,-31.7 -0.4,-1.9 -3.3,-1.1 -2.9,0.8 1.8,9.3 0.8,18.8 -2.8,27.6 -1.8,4.3 -4.1,8.4 -7.1,12 -2.9,3.6 -7.7,9.5 -12.8,9.1 -1.9,-0.2 -1.9,2.8 0,3 z"
     id="path215"
     fill="#ffffff"
     style="fill-rule:nonzero;stroke:none;stroke-width:1" />
  <path
     d="m 927.7,262 c 4,4.9 9.4,8.3 15.5,10 1.9,0.5 2.7,-2.4 0.8,-2.9 -5.7,-1.6 -10.5,-4.7 -14.2,-9.2 -1.2,-1.5 -3.3,0.7 -2.1,2.1 z"
     id="path217"
     fill="#ffffff"
     style="fill-rule:nonzero;stroke:none;stroke-width:1" />
  <path
     d="m 940.3,242.7 c 1.2,1.9 2.5,3.7 4,5.4 1.4,1.5 3.9,2.8 5.1,4.4 3.5,4.7 -3.2,13.8 -6.1,17.4 -1.2,1.5 1.4,3 2.6,1.5 3.3,-4.3 7.9,-11.5 7.7,-17.3 -0.1,-1.6 -0.7,-2.5 -1.8,-3.6 -3.2,-3.4 -6.4,-5.3 -9,-9.4 -1,-1.6 -3.6,-0.1 -2.5,1.6 z"
     id="path219"
     fill="#ffffff"
     style="fill-rule:nonzero;stroke:none;stroke-width:1" />
  <path
     d="m 938.4,245.7 c -0.5,4.8 -1.7,9.4 -3.8,13.8 -0.3,0.7 -1,1.6 -1.2,2.3 -0.5,1.8 0.8,-1.1 1.1,-1.5 1.2,-2.1 2.2,-4.3 3.2,-6.4 -0.9,-0.4 -1.8,-0.8 -2.7,-1.2 -0.9,2.9 -2.4,5.1 -4.8,7.1 0.8,0.6 1.6,1.2 2.4,1.8 2.1,-3.5 4.1,-7 6.2,-10.6 1,-1.7 -1.5,-3 -2.6,-1.5 -2.2,3 -4.4,6 -6.6,8.9 -1,1.4 1.2,3.1 2.4,1.8 2.4,-2.8 4.2,-5.8 5.4,-9.2 0.7,-1.8 -2.2,-2.6 -2.9,-0.8 -1.1,3 -2.6,5.5 -4.7,7.9 0.8,0.6 1.6,1.2 2.4,1.8 2.2,-3 4.4,-6 6.6,-8.9 -0.9,-0.5 -1.7,-1 -2.6,-1.5 -2.1,3.5 -4.1,7 -6.2,10.6 -0.9,1.6 1.1,2.8 2.4,1.8 2.8,-2.2 4.6,-5 5.6,-8.4 0.5,-1.6 -2,-2.7 -2.7,-1.2 -1.1,2.1 -2.2,4.3 -3.2,6.4 -0.6,1.2 -1.6,2.7 -1.4,4.1 0.1,1.7 1.8,3.2 3.6,2.6 2.4,-0.8 3.6,-5.2 4.4,-7.3 1.6,-4 2.5,-8.2 3,-12.5 -0.1,-1.8 -3.1,-1.8 -3.3,0.1 z"
     id="path221"
     fill="#ffffff"
     style="fill-rule:nonzero;stroke:none;stroke-width:1" />
  <path
     d="m 910.6,260.6 c -8.3,-1.3 -15.3,4.1 -20.9,9.7 -6.2,6.2 -10.8,13.7 -12.4,22.3 -0.4,1.9 2.5,2.7 2.9,0.8 1.3,-7.1 4.7,-13.3 9.5,-18.7 4.8,-5.5 12.2,-12.5 20.1,-11.2 1.9,0.3 2.7,-2.6 0.8,-2.9 z"
     id="path223"
     fill="#ffffff"
     style="fill-rule:nonzero;stroke:none;stroke-width:1" />
  <path
     d="m 900.6,218.7 c 3.1,8.1 6.6,16.1 10.3,23.9 0.6,1.2 2.4,0.8 2.7,-0.4 0.9,-3.6 1.3,-7.1 1.1,-10.8 -0.1,-1.9 -3.1,-1.9 -3,0 0.2,3.4 -0.1,6.7 -1,10 0.9,-0.1 1.8,-0.2 2.7,-0.4 -3.6,-7.6 -7,-15.3 -10,-23.2 -0.6,-1.7 -3.5,-0.9 -2.8,0.9 z"
     id="path225"
     fill="#ffffff"
     style="fill-rule:nonzero;stroke:none;stroke-width:1" />
  <path
     d="m 886.7,229.6 c -0.7,-1.3 0.6,-2.7 1.8,-3.1 1.8,-0.6 3.7,0.1 5.5,0.6 1.8,0.6 2.6,-2.3 0.8,-2.9 -2.9,-0.9 -6.4,-1.6 -9,0.4 -2,1.6 -2.9,4.2 -1.6,6.5 0.8,1.7 3.4,0.2 2.5,-1.5 z"
     id="path227"
     fill="#ffffff"
     style="fill-rule:nonzero;stroke:none;stroke-width:1" />
  <path
     d="m 918.1,222.8 c 1,-4.4 5.9,-6.3 9.4,-3.1 1.4,1.3 3.6,-0.8 2.1,-2.1 -5,-4.6 -12.9,-2.3 -14.4,4.4 -0.4,1.9 2.5,2.7 2.9,0.8 z"
     id="path229"
     fill="#ffffff"
     style="fill-rule:nonzero;stroke:none;stroke-width:1" />
  <path
     d="m 924.5,226.1 c -0.1,0.1 -0.3,0.3 -0.4,0.4 -0.6,0.6 -0.6,1.5 0,2.1 0.6,0.6 1.5,0.6 2.1,0 0.1,-0.1 0.3,-0.3 0.4,-0.4 0.6,-0.6 0.6,-1.5 0,-2.1 -0.6,-0.6 -1.5,-0.6 -2.1,0 z"
     id="path231"
     fill="#ffffff"
     style="fill-rule:nonzero;stroke:none;stroke-width:1" />
  <path
     d="m 931.2,223.3 c 0.1,0.3 0.3,0.5 0.4,0.8 0.4,0.7 1.4,0.9 2.1,0.5 0.7,-0.4 0.9,-1.3 0.5,-2.1 -0.1,-0.3 -0.3,-0.5 -0.4,-0.8 -0.4,-0.7 -1.4,-0.9 -2.1,-0.5 -0.7,0.4 -0.9,1.3 -0.5,2.1 z"
     id="path233"
     fill="#ffffff"
     style="fill-rule:nonzero;stroke:none;stroke-width:1" />
  <path
     d="m 930.3,230.1 c 0.1,0.1 0.3,0.3 0.4,0.4 0.6,0.6 1.5,0.6 2.1,0 0.6,-0.6 0.6,-1.5 0,-2.1 -0.1,-0.1 -0.3,-0.3 -0.4,-0.4 -0.6,-0.6 -1.5,-0.6 -2.1,0 -0.6,0.6 -0.6,1.5 0,2.1 z"
     id="path235"
     fill="#ffffff"
     style="fill-rule:nonzero;stroke:none;stroke-width:1" />
  <path
     d="m 889,236.8 v 0.4 c 0,0.8 0.7,1.5 1.5,1.5 0.8,0 1.5,-0.7 1.5,-1.5 0,-0.1 0,-0.3 0,-0.4 0,-0.8 -0.7,-1.5 -1.5,-1.5 -0.9,0 -1.5,0.6 -1.5,1.5 z"
     id="path237"
     fill="#ffffff"
     style="fill-rule:nonzero;stroke:none;stroke-width:1" />
  <path
     d="m 895.8,234 c -0.5,0 -0.9,0 -1.4,0 0.6,0.5 1.5,0.6 2.1,0 0.6,-0.6 0.6,-1.6 0,-2.1 -0.9,-0.8 -2,-0.8 -2.9,0 -0.6,0.5 -0.5,1.6 0,2.1 0.7,0.6 1.6,0.5 2.2,0 z"
     id="path239"
     fill="#ffffff"
     style="fill-rule:nonzero;stroke:none;stroke-width:1" />
  <path
     d="m 897.4,239.1 c 0,-0.1 0,-0.3 0,-0.4 0,-0.8 -0.7,-1.5 -1.5,-1.5 -0.8,0 -1.5,0.7 -1.5,1.5 v 0.4 c 0,0.8 0.7,1.5 1.5,1.5 0.8,-0.1 1.5,-0.7 1.5,-1.5 z"
     id="path241"
     fill="#ffffff"
     style="fill-rule:nonzero;stroke:none;stroke-width:1" />
  <path
     d="m 890.1,212.2 c -2.5,-1.6 -5.7,-0.8 -7.5,1.5 -0.5,0.6 -0.1,1.7 0.5,2.1 0.8,0.5 1.6,0.1 2.1,-0.5 0.8,-1 2.3,-1.1 3.3,-0.4 1.8,0.9 3.3,-1.7 1.6,-2.7 z"
     id="path243"
     fill="#ffffff"
     style="fill-rule:nonzero;stroke:none;stroke-width:1" />
  <path
     d="m 914,208.8 c 1.2,-0.5 2.5,-0.8 3.9,-0.9 1.9,-0.1 1.9,-3.1 0,-3 -1.9,0.1 -3.7,0.5 -5.4,1.3 -0.7,0.3 -0.9,1.4 -0.5,2.1 0.4,0.7 1.2,0.8 2,0.5 z"
     id="path245"
     fill="#ffffff"
     style="fill-rule:nonzero;stroke:none;stroke-width:1" />
  <path
     d="m 914.7,250.8 c 4.4,0.4 8.5,-2.5 9.9,-6.7 0.6,-1.8 -2.3,-2.6 -2.9,-0.8 -1,3 -3.9,4.8 -7,4.5 -1.9,-0.2 -1.9,2.8 0,3 z"
     id="path247"
     fill="#ffffff"
     style="fill-rule:nonzero;stroke:none;stroke-width:1" />
  <path
     d="m 953.3,254.4 c 3.3,-0.2 6.4,0.5 9.3,2.1 1.7,0.9 3.2,-1.7 1.5,-2.6 -3.4,-1.8 -7,-2.7 -10.8,-2.5 -1.9,0.1 -1.9,3.1 0,3 z"
     id="path249"
     fill="#ffffff"
     style="fill-rule:nonzero;stroke:none;stroke-width:1" />
  <path
     d="m 879.3,182.4 c -8.4,3.8 -14.9,11.2 -17.2,20.2 -1.4,5.5 -0.4,10.9 -0.6,16.5 -0.3,6.3 -3.2,11.9 -5.1,17.8 -5.5,17.1 3.9,35.9 21.3,41.1 1.9,0.5 2.6,-2.3 0.8,-2.9 -8.3,-2.5 -15,-8.6 -18.5,-16.5 -3.8,-8.7 -2.3,-16.9 0.9,-25.5 1.4,-3.7 2.8,-7.4 3.3,-11.4 0.6,-4.8 -0.4,-9.6 0.1,-14.4 0.9,-9.9 7.6,-18.3 16.5,-22.3 1.7,-0.8 0.2,-3.3 -1.5,-2.6 z"
     id="path251"
     fill="#ffffff"
     style="fill-rule:nonzero;stroke:none;stroke-width:1" />
  <path
     d="m 877,215 c 10.7,-5 18.7,-13.7 22.9,-24.7 0.7,-1.8 -2.2,-2.6 -2.9,-0.8 -3.9,10.2 -11.6,18.3 -21.5,22.9 -1.8,0.8 -0.2,3.4 1.5,2.6 z"
     id="path253"
     fill="#ffffff"
     style="fill-rule:nonzero;stroke:none;stroke-width:1" />
  <path
     d="m 901.2,189.7 c 3.3,5.8 10.2,8.4 16.3,10.4 7.7,2.6 15.8,3.7 23.9,3.6 1.9,0 1.9,-3 0,-3 -6.7,0.1 -13.3,-0.7 -19.7,-2.5 -6.2,-1.7 -14.5,-4.1 -17.9,-10.1 -0.9,-1.6 -3.5,-0.1 -2.6,1.6 z"
     id="path255"
     fill="#ffffff"
     style="fill-rule:nonzero;stroke:none;stroke-width:1" />
  <path
     d="m 942.1,205.4 c 2.3,-4.1 8.2,-3.6 9.6,1.1 1.4,4.6 -2.4,8.4 -6.8,8.9 -1.9,0.2 -1.9,3.2 0,3 6.7,-0.8 12.3,-7.1 9.2,-13.9 -2.9,-6.2 -11.3,-6.3 -14.6,-0.5 -0.9,1.5 1.6,3 2.6,1.4 z"
     id="path257"
     fill="#ffffff"
     style="fill-rule:nonzero;stroke:none;stroke-width:1" />
  <path
     d="m 944,216.5 c -2.2,12.8 -0.9,30.1 10.1,38.8 1.5,1.2 3.6,-0.9 2.1,-2.1 -10,-7.9 -11.4,-24 -9.3,-35.8 0.4,-2 -2.5,-2.8 -2.9,-0.9 z"
     id="path259"
     fill="#ffffff"
     style="fill-rule:nonzero;stroke:none;stroke-width:1" />
  <path
     d="m 878.8,185.8 c 6.6,-3.4 13.6,-7.1 21.2,-7 6.5,0.1 11.9,3.1 18.5,1.9 6.9,-1.2 13.2,-4.4 20.4,-4.8 7.4,-0.4 15.4,0.8 20.6,6.5 1.3,1.4 3.4,-0.7 2.1,-2.1 -10.1,-11 -26.3,-7.3 -38.8,-3.7 -5,1.5 -9.4,1.9 -14.5,0.6 -3.6,-0.9 -6.9,-1.6 -10.7,-1.3 -7.2,0.7 -13.9,4 -20.2,7.3 -1.8,0.9 -0.3,3.5 1.4,2.6 z"
     id="path261"
     fill="#ffffff"
     style="fill-rule:nonzero;stroke:none;stroke-width:1" />
  <path
     d="m 877.7,275.4 c -0.3,0.1 -0.7,0.2 -1,0.2 -1.6,0.4 -1.3,2.4 0,2.9 2.4,1 4.9,1.3 7.5,1 1.9,-0.2 1.9,-3.2 0,-3 -2.3,0.3 -4.5,0 -6.7,-0.9 v 2.9 c 0.3,-0.1 0.7,-0.2 1,-0.2 1.8,-0.4 1,-3.3 -0.8,-2.9 z"
     id="path263"
     fill="#ffffff"
     style="fill-rule:nonzero;stroke:none;stroke-width:1" />
  <path
     d="m 774.9,205.7 c 1.5,2.3 5.1,1.8 5.6,-1 0.2,-0.9 -1.2,-1.3 -1.4,-0.4 -0.3,1.4 -2,1.9 -2.9,0.7 -0.5,-0.8 -1.8,-0.1 -1.3,0.7 z"
     id="path265"
     fill="#ffffff"
     style="fill-rule:nonzero;stroke:none;stroke-width:1" />
  <path
     d="m 786.4,204.6 c 0.6,1 1.3,2.1 2.6,2.3 1.1,0.2 2.1,-0.3 2.5,-1.4 0.3,-0.9 -1.1,-1.3 -1.4,-0.4 -0.2,0.4 -0.8,0.3 -1.1,0.1 -0.5,-0.3 -0.8,-0.9 -1.1,-1.5 -0.7,-0.7 -2,0 -1.5,0.9 z"
     id="path267"
     fill="#ffffff"
     style="fill-rule:nonzero;stroke:none;stroke-width:1" />
  <path
     d="m 783.2,207.3 c 0.1,0.2 0.2,0.4 0.3,0.6 v -0.1 c -0.1,0.2 -0.1,0.4 -0.2,0.5 0,0 0,-0.1 0.1,-0.1 -0.2,0.1 -0.4,0.1 -0.5,0.2 h 0.1 c -0.2,-0.1 -0.4,-0.2 -0.6,-0.4 -0.2,-0.3 -0.3,0.3 -0.3,0.5 0,0.4 0.1,0.9 0.1,1.3 0,0.4 0,0.8 -0.2,1.1 -0.1,0.2 -0.5,0.5 -0.7,0.3 -0.7,-0.6 -1.8,0.4 -1.1,1.1 0.7,0.6 1.5,0.6 2.3,0.1 0.8,-0.5 1.1,-1.4 1.1,-2.4 0,-0.7 -0.1,-1.2 0.1,-1.8 0.1,-0.4 0.1,-0.7 -0.1,-1 -0.6,-0.8 -1.5,-0.2 -1.6,0.6 0,0.2 0.2,0.5 0.4,0.6 h 0.1 c 0.8,0.7 1.6,-0.6 0.7,-1.1 z"
     id="path269"
     fill="#ffffff"
     style="fill-rule:nonzero;stroke:none;stroke-width:1" />
  <path
     d="m 782.5,207.9 c 0.3,1.4 -0.1,2.9 1,4.1 0.8,0.9 2,1.1 3,0.3 0.7,-0.6 -0.3,-1.7 -1.1,-1.1 -0.6,0.5 -1.2,-1 -1.2,-1.3 -0.1,-0.8 -0.1,-1.6 -0.2,-2.4 -0.3,-0.9 -1.7,-0.5 -1.5,0.4 z"
     id="path271"
     fill="#ffffff"
     style="fill-rule:nonzero;stroke:none;stroke-width:1" />
  <path
     d="m 776.7,200.8 h 2.2 c 1,0 1,-1.5 0,-1.5 -0.7,0 -1.5,0 -2.2,0 -1,0 -1,1.5 0,1.5 z"
     id="path273"
     fill="#ffffff"
     style="fill-rule:nonzero;stroke:none;stroke-width:1" />
  <path
     d="m 787.6,201.1 c 0.7,0 1.3,0.1 1.9,0.5 0.8,0.5 1.6,-0.8 0.8,-1.3 -0.8,-0.5 -1.7,-0.7 -2.6,-0.7 -1.1,0 -1.1,1.5 -0.1,1.5 z"
     id="path275"
     fill="#ffffff"
     style="fill-rule:nonzero;stroke:none;stroke-width:1" />
  <path
     d="m 782.6,217.9 c -9.8,0.6 -8.9,-9.8 -11.2,-16.2 -0.6,-1.9 -1.7,-3.5 -2.4,-5.4 -2.6,-7.4 3.1,-2.2 5,0.5 0.6,0.8 1.9,0 1.3,-0.8 -1.1,-1.6 -5.1,-7.5 -7.5,-6.8 -2.5,0.7 -0.9,6 -0.3,7.5 1.1,3 2.6,5.4 3.2,8.6 0.5,2.9 0.6,5.9 2.1,8.5 2,3.6 5.6,5.8 9.7,5.5 1,0.1 1,-1.4 0.1,-1.4 z"
     id="path277"
     fill="#ffffff"
     style="fill-rule:nonzero;stroke:none;stroke-width:1" />
  <path
     d="m 775.7,197.3 c 4.8,-2.6 9.8,-2.8 14.7,-0.5 0.4,0.2 0.8,0.1 1,-0.3 1.3,-2.4 2.9,-4.2 5.1,-5.8 -0.4,-0.2 -0.9,-0.4 -1.3,-0.5 0.2,5.5 0.4,11.3 -0.5,16.7 -1.3,7.6 -6.3,10.4 -13.5,11.3 -0.9,0.1 -1,1.6 0,1.5 5.9,-0.8 11.3,-2.2 13.8,-8.1 2.7,-6.4 2,-14.6 1.7,-21.4 0,-0.7 -0.8,-0.9 -1.3,-0.5 -1.4,1.1 -3,4 -4.5,4.8 -1.7,0.9 -3.7,-0.4 -5.6,-0.6 -3.7,-0.4 -7.2,0.5 -10.5,2.2 -0.7,0.4 0,1.7 0.9,1.2 z"
     id="path279"
     fill="#ffffff"
     style="fill-rule:nonzero;stroke:none;stroke-width:1" />
  <path
     d="m 774.9,215.5 c -2.7,4.4 -1.7,9.7 -0.9,14.6 1.2,7.5 3.4,14.8 5.6,22 0.3,0.9 1.7,0.5 1.4,-0.4 -1.6,-5.4 -3.3,-10.9 -4.5,-16.4 -1.3,-5.7 -3.6,-13.7 -0.3,-19 0.5,-0.8 -0.8,-1.6 -1.3,-0.8 z"
     id="path281"
     fill="#ffffff"
     style="fill-rule:nonzero;stroke:none;stroke-width:1" />
  <path
     d="m 779.5,251.5 c -1.9,0.3 -8,2.3 -6.1,5.3 0.7,1.1 2.2,1.3 3.4,1.4 2.3,0.2 4.6,-0.2 6.8,-0.9 0.9,-0.3 0.5,-1.7 -0.4,-1.4 -2,0.6 -5.2,1.6 -7.3,0.8 -0.4,-0.2 -1.2,-0.9 -1,-1.4 0.1,-0.3 1,-0.7 1.4,-0.9 1.2,-0.6 2.4,-1.1 3.7,-1.3 0.9,-0.4 0.5,-1.8 -0.5,-1.6 z"
     id="path283"
     fill="#ffffff"
     style="fill-rule:nonzero;stroke:none;stroke-width:1" />
  <path
     d="m 783.9,228.3 c 0.7,8.2 1.6,16.3 2.8,24.5 0.1,1 1.6,0.5 1.4,-0.4 -1.2,-8 -2.1,-16 -2.8,-24.1 0.1,-1 -1.4,-1 -1.4,0 z"
     id="path285"
     fill="#ffffff"
     style="fill-rule:nonzero;stroke:none;stroke-width:1" />
  <path
     d="m 787.3,252.2 c -2.2,0.3 -6.1,2.2 -4.1,5.1 2.2,3.1 8.4,0.5 11,-0.5 0.9,-0.3 0.5,-1.8 -0.4,-1.4 -1.7,0.7 -3.4,1.3 -5.2,1.6 -0.8,0.1 -2.3,0.4 -3.1,0 -1.3,-1.5 -1.2,-2.5 0.3,-2.9 0.5,-0.2 1,-0.3 1.5,-0.3 0.9,-0.2 0.9,-1.7 0,-1.6 z"
     id="path287"
     fill="#ffffff"
     style="fill-rule:nonzero;stroke:none;stroke-width:1" />
  <path
     d="m 794.5,211.6 c 4,2.4 4.9,6.5 6.7,10.5 1.3,2.9 2.9,4.9 5.3,7 3.5,3 6.7,5.3 8,10.1 1.3,5 0.2,10.2 -1.2,15 -0.3,0.9 1.2,1.3 1.4,0.4 2.4,-8.3 3.3,-17.4 -3.7,-23.8 -1.6,-1.5 -3.5,-2.7 -5,-4.2 -2.2,-2.3 -3.3,-4.9 -4.4,-7.8 -1.4,-3.5 -2.9,-6.5 -6.2,-8.5 -1,-0.5 -1.7,0.8 -0.9,1.3 z"
     id="path289"
     fill="#ffffff"
     style="fill-rule:nonzero;stroke:none;stroke-width:1" />
  <path
     d="m 806.5,236.7 c -3.3,-0.5 -6,2.3 -7,5.4 -1.4,4.2 2.2,8.4 4.6,11.4 0.2,-0.4 0.4,-0.9 0.5,-1.3 -3.2,0.3 -5.8,1.3 -8.4,3.2 -0.3,0.2 -0.5,0.7 -0.3,1 2.5,3.2 8.2,1.8 11.7,1.8 3.7,-0.1 7.4,-0.4 7.3,-5.1 0,-1 -1.5,-1 -1.5,0 0.1,4.8 -9.4,3.7 -12,3.7 -0.6,0 -1.1,0 -1.7,0 -1.9,-0.3 -2.3,-0.7 -1.2,-1.2 0.5,-1.3 5,-1.8 6.1,-1.9 0.7,-0.1 0.9,-0.8 0.5,-1.3 -1.3,-1.7 -3.1,-3.7 -3.8,-5.8 -1,-2.7 0.2,-9.2 4.8,-8.5 1,0.2 1.4,-1.2 0.4,-1.4 z"
     id="path291"
     fill="#ffffff"
     style="fill-rule:nonzero;stroke:none;stroke-width:1" />
  <path
     d="m 793.1,243.6 c 0.4,4 0.6,8 0.7,12 0,1 1.5,1 1.5,0 -0.1,-4 -0.3,-8 -0.7,-12 -0.1,-0.9 -1.6,-0.9 -1.5,0 z"
     id="path293"
     fill="#ffffff"
     style="fill-rule:nonzero;stroke:none;stroke-width:1" />
  <path
     d="m 794.7,252.8 c 3.1,1.5 6.4,1.8 9.6,0.8 0.9,-0.3 0.5,-1.7 -0.4,-1.4 -2.9,0.8 -5.8,0.6 -8.5,-0.7 -0.8,-0.4 -1.6,0.9 -0.7,1.3 z"
     id="path295"
     fill="#ffffff"
     style="fill-rule:nonzero;stroke:none;stroke-width:1" />
  <path
     d="m 815.8,247.9 c 2.8,-1.9 4.8,-4.4 5.5,-7.8 1.1,-5.4 -2.3,-10.4 0.1,-15.7 1.9,-4.1 5.1,-7.2 6,-11.7 1,-5.1 -1,-10.3 0.2,-15.4 0.3,-1.2 0.7,-2.8 1.6,-3.8 0.9,-2 2.3,-1.5 4,1.6 -0.2,0.5 -0.4,1 -0.6,1.5 -0.3,2.5 -2.2,5.1 -2.7,7.7 -0.4,2.3 -0.2,4.6 -0.5,6.9 -0.4,3.3 -2,5.9 -3.5,8.9 -2.1,4.3 -1.7,8.1 -1.5,12.8 0.3,7.1 -2.5,13 -8.9,16.4 -0.9,0.5 -0.1,1.8 0.8,1.3 4.2,-2.3 7.5,-5.8 8.9,-10.4 2.2,-7 -0.8,-13.7 2.7,-20.6 1.3,-2.7 2.6,-5 3,-8 0.5,-3.5 0.2,-6.5 1.3,-10 0.8,-2.5 5.3,-9.3 1.9,-11.7 -2.2,-1.5 -5.1,1.1 -6.2,2.7 -3,4.2 -2.1,9.6 -1.9,14.5 0.2,4.5 -0.6,8 -3,11.8 -1.3,2 -2.7,4 -3.5,6.3 -2.7,7.8 4.3,15.5 -4.4,21.5 -0.8,0.5 -0.1,1.8 0.7,1.2 z"
     id="path297"
     fill="#ffffff"
     style="fill-rule:nonzero;stroke:none;stroke-width:1" />
  <path
     d="m 849.7,274 c -3.5,-0.7 -6.6,0.4 -9.4,2.6 -2,1.5 -4.6,3.7 -4.2,6.5 1.2,7.3 12.7,3 16.3,0.6 1.6,-1.1 0.1,-3.7 -1.5,-2.6 -1.5,1 -3,1.8 -4.7,2.3 -1.1,0.3 -2.2,0.6 -3.3,0.6 -1.5,0.1 -2.1,0.2 -2.9,-1.3 -0.8,-1.5 -0.4,-1.5 0.7,-2.6 0.7,-0.7 1.4,-1.2 2.2,-1.8 1.8,-1.2 3.8,-1.9 6,-1.5 1.9,0.5 2.7,-2.4 0.8,-2.8 z"
     id="path299"
     fill="#ffffff"
     style="fill-rule:nonzero;stroke:none;stroke-width:1" />
  <path
     d="m 846.7,273.1 c -0.6,-4.5 -1.9,-8.8 -4.2,-12.8 -1.5,-2.6 -4.8,-8.3 -8.3,-8.7 -7.6,-0.9 0.6,19 1.9,21.7 0.9,1.7 3.4,0.2 2.6,-1.5 -1.5,-3.1 -2.7,-6.2 -3.5,-9.5 -0.4,-1.7 -1.2,-4.2 -1,-5.8 0,-0.5 -0.1,-0.9 -0.1,-1.4 0.8,0.4 1.5,1 2.1,1.7 4.2,4.3 6.7,10.4 7.5,16.3 0.3,1.8 3.3,1.9 3,0 z"
     id="path301"
     fill="#ffffff"
     style="fill-rule:nonzero;stroke:none;stroke-width:1" />
  <path
     d="m 838.8,271.7 c -2.2,-4.2 -11.3,-18.4 -17.5,-12.9 -6.2,5.5 4.9,17.4 8.8,21 1.4,1.3 3.5,-0.8 2.1,-2.1 -2.1,-2 -4.1,-4.1 -5.7,-6.4 -0.9,-1.3 -5.3,-7.8 -3.8,-9.2 l 3.6,-0.6 c 0.9,0.6 1.7,1.3 2.5,2 0.9,0.8 1.8,1.8 2.7,2.7 1.9,2.1 3.4,4.5 4.7,7 0.9,1.8 3.5,0.3 2.6,-1.5 z"
     id="path303"
     fill="#ffffff"
     style="fill-rule:nonzero;stroke:none;stroke-width:1" />
  <path
     d="m 829.9,278.6 c -3.4,-2.8 -8.4,0 -8.1,4.3 0.4,5.8 6.9,7 11.4,5.7 1.9,-0.5 1.1,-3.4 -0.8,-2.9 -2.4,0.7 -5.7,0.9 -7.2,-1.7 -0.6,-1 -0.7,-2.2 0.2,-3 0.6,-0.6 1.7,-0.9 2.4,-0.3 1.4,1.3 3.5,-0.8 2.1,-2.1 z"
     id="path305"
     fill="#ffffff"
     style="fill-rule:nonzero;stroke:none;stroke-width:1" />
  <path
     d="m 823.4,282.9 c -4.2,1.3 -4.2,6.3 -1.8,9.3 2.4,3 7,5 10.4,2.4 1.5,-1.2 -0.6,-3.3 -2.1,-2.1 -1.6,1.2 -4.2,-0.4 -5.3,-1.5 -1.2,-1.2 -2.8,-4.4 -0.3,-5.2 1.8,-0.6 1,-3.5 -0.9,-2.9 z"
     id="path307"
     fill="#ffffff"
     style="fill-rule:nonzero;stroke:none;stroke-width:1" />
  <path
     d="m 848,274.2 c 7.3,0 9.5,13.7 8.1,18.8 -0.5,1.9 2.4,2.7 2.9,0.8 2,-7.2 -1.4,-22.6 -11,-22.6 -2,0 -2,3 0,3 z"
     id="path309"
     fill="#ffffff"
     style="fill-rule:nonzero;stroke:none;stroke-width:1" />
  <path
     d="m 776.6,378.4 h 103.5 c 1.9,0 1.9,-3 0,-3 -34.5,0 -69,0 -103.5,0 -1.9,0 -1.9,3 0,3 z"
     id="path311"
     fill="#e8e8e8"
     style="fill-rule:nonzero;stroke:none;stroke-width:1" />
  <path
     d="m 803.1,391.8 h 95.3 c 1.9,0 1.9,-3 0,-3 -31.8,0 -63.6,0 -95.3,0 -1.9,0 -1.9,3 0,3 z"
     id="path313"
     fill="#e8e8e8"
     style="fill-rule:nonzero;stroke:none;stroke-width:1" />
  <path
     d="m 892.6,377.9 h 12 c 1.9,0 1.9,-3 0,-3 -4,0 -8,0 -12,0 -1.9,0 -1.9,3 0,3 z"
     id="path315"
     fill="#e8e8e8"
     style="fill-rule:nonzero;stroke:none;stroke-width:1" />
  <path
     d="m 926.7,386.9 c -3.7,-1.7 -6.5,-4.7 -7.5,-8.7 -0.5,-1.9 -0.9,-4.7 0.4,-6.4 2.5,-3.5 5.5,1.3 6.3,3.8 0.4,1.3 2.6,1.5 2.9,0 0.1,-0.7 0.3,-1.4 0.5,-2.1 0.8,-3 2.7,-2.7 5.8,0.7 0.5,1.8 -0.7,4.8 -1.5,6.3 -1.7,3.4 -4.5,5.8 -7.9,7.5 -1.7,0.8 -0.2,3.4 1.5,2.6 6.4,-3 13.4,-11.8 10.2,-19.3 -1,-2.3 -3.4,-4.1 -6,-3.7 -3.5,0.5 -5,4.2 -5.6,7.2 h 2.9 c -1.7,-5.5 -8.9,-11.9 -12.2,-3.8 -2.9,7.1 2.3,15.5 8.7,18.5 1.7,0.8 3.2,-1.8 1.5,-2.6 z"
     id="path317"
     fill="#e8e8e8"
     style="fill-rule:nonzero;stroke:none;stroke-width:1" />
  <path
     d="m 506.7,754.3 c -2.3,15.6 -4.6,31.3 -6.9,46.9 -42.3,12.9 -63,21.3 -62.2,25 1,4.6 33.6,2.4 98,-6.6 0.9,-22.4 1.9,-44.7 2.8,-67.1 -10.6,0.6 -21.1,1.2 -31.7,1.8 z"
     id="path319"
     fill="#161616"
     style="fill-rule:nonzero;stroke:none;stroke-width:1" />
  <path
     d="m 527.2,611.2 c -2.1,1.6 -3.3,3.4 -7.8,12.1 -3.6,6.9 -5.3,10.4 -6.5,13 -8.1,18.4 -16,47.3 -16,47.3 -6.3,22.9 -9.5,34.3 -11.7,46.4 -3.2,17.1 -4.5,31.6 -5.2,42.1 5.9,2.7 13,5.4 21.3,7.4 19.6,4.7 36.5,3.3 47.7,1.3 2,-14.1 4.8,-29.4 8.7,-45.5 3.4,-14.4 7.3,-27.7 11.3,-39.9 4.3,2.7 10.6,6.9 18.2,12.1 24.9,17.3 32.7,25.7 47.3,35.1 9.6,6.2 23.8,14 43.4,20 4.5,-0.6 16.8,-2.8 27.3,-13 15.8,-15.5 14.2,-36.5 13.9,-39.5 -6.6,-7 -15.9,-16.4 -27.8,-26.5 -21,-17.8 -39.1,-28.7 -52,-36.4 -10.4,-6.2 -22,-11.9 -45.1,-23.4 0,0 -27.1,-13.4 -52,-15.6 -4.4,-0.4 -10.3,-0.6 -15,3 z"
     id="path321"
     fill="#ffffff"
     style="fill-rule:nonzero;stroke:none;stroke-width:1" />
  <path
     d="m 481.2,770.8 c 2.6,-26.2 7.4,-52.1 14.3,-77.4 3.4,-12.4 7.3,-24.7 11.7,-36.9 4.4,-12.1 8.8,-24.8 15,-36.2 3.7,-6.8 8.7,-9.1 16.2,-9.4 6.8,-0.3 13.6,0.6 20.2,2.2 12.1,2.8 23.8,7.5 35.2,12.4 21.6,9.2 42.4,20.5 61.9,33.7 22.2,15 42.7,32.3 61.2,51.7 1.3,1.4 3.5,-0.7 2.1,-2.1 -35,-36.5 -77.2,-65.9 -123.7,-85.8 -11.4,-4.9 -23,-9.5 -35.1,-12.5 -10,-2.4 -25.5,-5.7 -34.6,0.8 -3.9,2.8 -6.1,7.3 -8.1,11.6 -2.6,5.7 -5,11.5 -7.4,17.3 -5.3,13.1 -10,26.4 -14.1,40 -8.9,29.5 -14.9,59.9 -17.9,90.6 -0.1,1.9 2.9,1.9 3.1,0 z"
     id="path323"
     fill="#161616"
     style="fill-rule:nonzero;stroke:none;stroke-width:1" />
  <path
     d="m 480.6,772.2 c 20.6,11.6 44.8,14.9 67.8,9.2 1.9,-0.5 1.1,-3.4 -0.8,-2.9 -22.2,5.5 -45.6,2.4 -65.5,-8.9 -1.7,-0.9 -3.2,1.6 -1.5,2.6 z"
     id="path325"
     fill="#161616"
     style="fill-rule:nonzero;stroke:none;stroke-width:1" />
  <path
     d="m 551.4,779.2 c 3.5,-28.5 9.9,-56.6 18.9,-83.9 0.6,-1.8 -2.3,-2.6 -2.9,-0.8 -9.1,27.6 -15.4,55.9 -19,84.7 -0.2,1.9 2.8,1.9 3,0 z"
     id="path327"
     fill="#161616"
     style="fill-rule:nonzero;stroke:none;stroke-width:1" />
  <path
     d="m 561,692.4 c 40.1,20.4 70,59.6 115.1,70.1 1.9,0.4 2.7,-2.5 0.8,-2.9 -44.8,-10.5 -74.6,-49.5 -114.4,-69.8 -1.7,-0.9 -3.2,1.7 -1.5,2.6 z"
     id="path329"
     fill="#161616"
     style="fill-rule:nonzero;stroke:none;stroke-width:1" />
  <path
     d="m 515.2,782.4 c 10.2,-32.4 21.4,-65.4 33.7,-99 2.9,-8 5.9,-15.9 8.9,-23.8 20.9,11 41.9,22 62.8,33 29.2,15.4 58.4,30.9 87.6,46.5 -0.8,3.7 -3.7,13.8 -12.8,19.2 -6.8,4 -14.3,3.7 -22.3,2.1 -24.8,-5 -40.4,-20 -71.6,-43.3 -7.1,-5.3 -18,-13.3 -31.9,-22.7 -2.7,7.6 -5.3,15.5 -7.8,23.8 -6.7,22.4 -11,43.5 -13.8,62.8 -5.8,1.5 -13.5,2.8 -22.3,2.5 -3.9,-0.2 -7.4,-0.6 -10.5,-1.1 z"
     id="path331"
     fill="#6d6c6c"
     opacity="0.12"
     style="fill-rule:nonzero;stroke:none;stroke-width:1" />
  <path
     d="m 567,693.3 c -2.5,-1 -12.6,17.8 -15.6,23.4 -7.7,14.3 -17.7,35.4 -27,63.5 1.9,0.8 4.3,1.7 7.1,2.1 7.4,1.3 13.4,-0.5 16.7,-1.8 5.3,-27.8 10.7,-49.9 14.9,-65.6 2.6,-9.8 5.7,-20.8 3.9,-21.6 z"
     id="path333"
     fill="#6d6c6c"
     opacity="0.12"
     style="fill-rule:nonzero;stroke:none;stroke-width:1" />
  <path
     d="m 410.5,766.4 c -6.8,17.8 -13.7,35.7 -20.5,53.5 -39.9,13.3 -59.3,22.1 -58.4,26.4 1.1,5 29.7,4 85.8,-3.1 6.7,-21.7 13.4,-43.3 20.2,-65 -9.1,-3.9 -18.1,-7.8 -27.1,-11.8 z"
     id="path335"
     fill="#161616"
     style="fill-rule:nonzero;stroke:none;stroke-width:1" />
  <path
     d="m 467.8,592.5 c -7.7,5.4 -12.1,11.8 -14.3,15.2 -9.6,14.5 -14.5,21.8 -17.8,28.2 -9.4,18.1 -15.4,33.3 -18.2,40.8 -9.5,25.1 -14.3,45.5 -18.7,63.8 -3.2,13.7 -5.5,25.1 -6.9,33 4,4.8 9.7,10.5 17.3,15.6 16,10.7 32.1,13.2 40.8,13.9 7.3,-21.1 14.2,-38.9 20,-52.9 6.1,-15 10.6,-25 18.7,-36.4 5.8,-8.3 11.5,-14.5 15.6,-18.7 4.5,6.3 11,14.8 19.5,24.3 10.5,11.7 29.7,32.8 60.7,51.2 25.1,14.9 44.8,20.2 64.6,25.6 20.6,5.6 26.9,5 31.7,2.2 19.7,-11.6 9.7,-57.9 9.1,-60.7 -19.3,-14.8 -33.6,-27.9 -43.4,-37.3 -8.8,-8.5 -18.7,-18.8 -36,-34.3 -4.6,-4.1 -9.4,-8.4 -16,-13.9 -3.1,-2.6 -14.6,-12 -34.3,-25.6 0,0 -25,-17.3 -49.4,-29.9 0,0 -6.2,-3.2 -16.9,-6.5 -8.9,-2.7 -12.6,-2.9 -16,-2.2 -1.2,0.1 -4.7,0.9 -10.1,4.6 z"
     id="path337"
     fill="#ffffff"
     style="fill-rule:nonzero;stroke:none;stroke-width:1" />
  <path
     d="m 464.9,592.8 c -44.1,49 -62.7,114.2 -74.9,177.5 -0.4,1.9 2.5,2.7 2.9,0.8 12.1,-62.8 30.4,-127.6 74.1,-176.2 1.4,-1.4 -0.8,-3.6 -2.1,-2.1 z"
     id="path339"
     fill="#161616"
     style="fill-rule:nonzero;stroke:none;stroke-width:1" />
  <path
     d="m 391,773.8 c 14.6,16.9 34.7,28.2 56.7,31.8 1.9,0.3 2.7,-2.6 0.8,-2.9 -21.6,-3.5 -41.1,-14.5 -55.4,-31 -1.2,-1.5 -3.3,0.6 -2.1,2.1 z"
     id="path341"
     fill="#161616"
     style="fill-rule:nonzero;stroke:none;stroke-width:1" />
  <path
     d="m 450.6,804.2 c 6.4,-19.9 14,-39.3 23,-58.2 8.2,-17.1 16.6,-36.8 31.3,-49.4 1.5,-1.3 -0.7,-3.4 -2.1,-2.1 -14.9,12.8 -23.5,32.7 -31.7,50 -9.1,19.1 -16.8,38.8 -23.3,58.9 -0.7,1.8 2.2,2.6 2.8,0.8 z"
     id="path343"
     fill="#161616"
     style="fill-rule:nonzero;stroke:none;stroke-width:1" />
  <path
     d="m 494.3,683.8 c 41.1,56.6 97.1,107.4 169.1,117 1.9,0.3 1.9,-2.7 0,-3 -70.8,-9.4 -126,-59.8 -166.5,-115.5 -1.2,-1.5 -3.8,0 -2.6,1.5 z"
     id="path345"
     fill="#161616"
     style="fill-rule:nonzero;stroke:none;stroke-width:1" />
  <path
     d="m 467.4,594.8 c 16.5,-12.1 37.5,1.3 52.7,9.5 15.7,8.4 30.8,17.7 45.5,27.8 29.6,20.5 56.9,44.3 81.3,70.8 1.3,1.4 3.4,-0.7 2.1,-2.1 -40.2,-43.7 -88.5,-80.4 -141.9,-106.5 -12.8,-6.3 -28.5,-11.3 -41.2,-2 -1.5,1 0,3.6 1.5,2.5 z"
     id="path347"
     fill="#161616"
     style="fill-rule:nonzero;stroke:none;stroke-width:1" />
  <path
     d="m 414.6,789.2 c 6.6,-13.6 18.2,-37.6 32.5,-67.9 27.5,-57.9 32.1,-69.1 44.7,-73.4 21.8,-7.3 42.5,14.6 90.4,48.8 26.8,19.2 63.7,43.3 110.8,67.6 0.9,5.2 2.8,19.4 -5.5,28.4 -3.7,3.9 -12.1,9.9 -38.1,5.5 -10,-1.7 -56.8,-10.6 -113.6,-67.2 -14.3,-14.2 -24.9,-27.2 -31.9,-36.4 -2.9,3.4 -7.3,8.9 -12.1,15.9 -8.4,12.4 -14,23.7 -27,55 -4.2,10 -9.4,22.8 -15.2,37.7 -3.8,0.2 -11,0.2 -19,-3.1 -8.2,-3.1 -13.4,-8.1 -16,-10.9 z"
     id="path349"
     fill="#6d6c6c"
     opacity="0.13"
     style="fill-rule:nonzero;stroke:none;stroke-width:1" />
  <path
     d="m 496,681.2 c 3.9,2 9.6,5 16.3,9 42.3,25.2 43.3,40.5 74.8,59.2 24.5,14.5 33.7,11.1 58.9,30.1 9.8,7.4 17.1,14.5 21.8,19.4 -9.7,-0.8 -23.1,-2.8 -38.4,-7.6 -20,-6.3 -33.8,-14.6 -44,-20.8 -5.1,-3.1 -26.3,-16.2 -49.5,-39.5 -11.6,-11.5 -26.1,-27.9 -39.9,-49.8 z"
     id="path351"
     fill="#6d6c6c"
     opacity="0.12"
     style="fill-rule:nonzero;stroke:none;stroke-width:1" />
  <path
     d="m 500.5,695 c -1.4,-1.8 -11.9,2.7 -21.1,9.7 -16.6,12.5 -21.3,27 -36.7,55.4 -4.5,8.3 -11.3,20.4 -20.4,34.6 8.9,3.6 17.8,7.2 26.7,10.7 2,-5.4 17.3,-46.3 28.7,-71 3.7,-7.9 5.7,-12.3 9.3,-18.3 8,-13.2 14.8,-19.4 13.5,-21.1 z"
     id="path353"
     fill="#6d6c6c"
     opacity="0.12"
     style="fill-rule:nonzero;stroke:none;stroke-width:1" />
  <path
     d="m 915.5,523.3 c 2.6,1.4 2.5,2.9 5.8,5.7 2.7,2.3 3.7,2 4.8,3.9 1.2,2.1 1.4,4.5 1.4,6.1 1.1,0 3.1,0.3 5.2,1.8 0.6,0.4 4.7,3.3 5.8,9.6 0.8,4.3 -0.2,7.9 -0.7,9.2 1.1,1 2.8,2.8 3.4,5.7 0.8,3.6 -0.3,6.9 -1.7,10.5 -4.1,10.1 -7.8,14.3 -12,22.8 -1.3,2.5 -3,6.4 -4.8,11.4 -0.1,3.8 -0.1,10 0.7,17.5 1.2,11.2 3.4,19.3 4.1,21.9 3.5,13 9.7,43.4 10.3,71.3 0.3,14.3 0.6,37.2 -9.3,60.6 -3.7,8.8 -9.2,21.2 -20.3,26.3 -1.8,0.8 -14.7,6.7 -23.7,-2.6 -3.3,-3.4 -5,-7.6 -5.8,-10.5 -0.2,-1.5 -0.4,-3.8 -0.3,-6.6 0.3,-12.1 5.9,-20.8 7.9,-24.1 6.8,-11.5 8.9,-24.3 12.4,-46 2.2,-13.4 1.7,-25 0.7,-47.8 -0.7,-15.6 -2.2,-36.7 -5.5,-61.8 -1.7,-0.5 -3.9,-1.5 -5.5,-3.9 -2.4,-3.7 -1,-7.1 -2.8,-13.6 -1.4,-4.9 -2.5,-4 -4.8,-10.5 -1.7,-4.7 -3.3,-9 -2.4,-14 0.2,-1 1.1,-6.9 4.5,-8.3 4.3,-1.9 9.1,4.9 10.3,6.6 2.4,3.4 3.6,7 4.1,9.2 2.4,-4 4.9,-8.8 7.2,-14.5 1.1,-2.6 2,-5.1 2.8,-7.5 -0.4,-2.2 -0.9,-5.4 -1.3,-9.3 -0.5,-5.2 -0.7,-7.9 -0.1,-11.3 0.4,-2.3 1.4,-7.4 4.5,-8.8 1.9,-0.7 4,0.4 5.1,1 z"
     id="path355"
     fill="#ffffff"
     style="fill-rule:nonzero;stroke:none;stroke-width:1" />
  <path
     d="m 925.3,606.6 c 4.9,-8.8 10.7,-17.6 14.7,-26.9 2.9,-6.8 4.1,-15 -0.4,-21.4 -1.1,-1.6 -3.7,-0.1 -2.6,1.5 5.2,7.3 1.7,16.4 -2.1,23.5 -4,7.3 -8.1,14.5 -12.2,21.8 -1,1.7 1.6,3.2 2.6,1.5 z"
     id="path357"
     fill="#161616"
     style="fill-rule:nonzero;stroke:none;stroke-width:1" />
  <path
     d="m 932.4,574.9 c 7.3,-9.7 13.2,-33.1 -3.8,-36.9 -1.9,-0.4 -2.7,2.5 -0.8,2.9 14.8,3.3 8.1,24.3 2,32.5 -1.1,1.5 1.5,3 2.6,1.5 z"
     id="path359"
     fill="#161616"
     style="fill-rule:nonzero;stroke:none;stroke-width:1" />
  <path
     d="m 924.5,566 c 6.9,-9.9 7.4,-23.5 2.1,-34.2 -0.9,-1.7 -3.4,-0.2 -2.6,1.5 4.8,9.8 4.2,22.2 -2.1,31.2 -1.1,1.5 1.5,3 2.6,1.5 z"
     id="path361"
     fill="#161616"
     style="fill-rule:nonzero;stroke:none;stroke-width:1" />
  <path
     d="m 918.6,558.3 c 2.8,-8.8 3.7,-18.4 1.7,-27.5 -1.1,-4.9 -6,-13.5 -12.1,-8.8 -5.7,4.4 -3.1,16.5 -2.5,22.4 0.6,5.9 -0.1,10.1 -3.2,15.2 -2.7,4.4 -4.9,9 -6.6,13.9 -0.7,1.8 2.2,2.6 2.9,0.8 2.3,-6.5 6.4,-11.8 9.1,-18 2.5,-5.8 0.8,-12.1 0.4,-18.2 -0.2,-2.8 -1,-7.3 0.1,-10 0.1,-2.1 1.4,-2.5 3.9,-1.4 2.8,-1.1 4.4,-0.3 4.7,2.5 0.7,1.9 1,4.1 1.2,6.1 0.8,7.5 0,14.9 -2.3,22.1 -0.7,2 2.1,2.8 2.7,0.9 z"
     id="path363"
     fill="#161616"
     style="fill-rule:nonzero;stroke:none;stroke-width:1" />
  <path
     d="m 927.7,533.3 c -1.2,-4.6 -6.4,-8.3 -10.9,-5.2 -1.6,1.1 -0.1,3.7 1.5,2.6 2.8,-1.9 5.7,0.6 6.5,3.4 0.5,1.9 3.4,1.1 2.9,-0.8 z"
     id="path365"
     fill="#161616"
     style="fill-rule:nonzero;stroke:none;stroke-width:1" />
  <path
     d="m 897.7,571.1 c -1.6,-5.9 -5.5,-13.4 -12.1,-14.6 -6.3,-1.2 -8.5,4.9 -8.7,10 -0.5,9.6 4.6,16.2 7.1,25 2,7.1 1.4,14.2 8.6,18.4 1.7,1 3.2,-1.6 1.5,-2.6 -5.4,-3.1 -5.6,-8.5 -6.7,-14 -0.8,-4.4 -2.9,-8.1 -4.7,-12.2 -2.1,-4.7 -4.4,-12 -2.6,-17.1 0.1,-0.5 0.2,-0.9 0.3,-1.4 2.3,-0.7 4.6,-1.5 6.8,-2.2 1.3,0.4 2.9,2.5 3.8,3.5 1.9,2.4 3,5 3.7,8 0.6,1.9 3.5,1.1 3,-0.8 z"
     id="path367"
     fill="#161616"
     style="fill-rule:nonzero;stroke:none;stroke-width:1" />
  <path
     d="m 892,608.4 c 4.2,34.7 8.7,70.7 5.6,105.6 -1.5,16.5 -5.6,31.8 -12.2,46.9 -5.4,12.4 -9.3,24.1 -6.7,37.7 0.4,1.9 3.3,1.1 2.9,-0.8 -2.9,-15.2 3.3,-27.7 9,-41.3 6,-14.1 9,-29.1 10.2,-44.3 2.7,-34.4 -1.6,-69.7 -5.7,-103.8 -0.4,-1.9 -3.4,-1.9 -3.1,0 z"
     id="path369"
     fill="#161616"
     style="fill-rule:nonzero;stroke:none;stroke-width:1" />
  <path
     d="m 922.3,604 c -2.4,6.9 -1.2,14.6 -0.4,21.7 0.9,7.5 2.1,15 3.5,22.4 3.1,16.3 7,32.4 9.1,48.9 2.1,16.2 2.2,32.6 0.4,48.8 -1.8,16.1 -4.9,33.7 -13.9,47.5 -4.3,6.6 -10.7,13 -18.8,14.5 -8.7,1.7 -16.6,-3.5 -20.7,-11 -0.9,-1.7 -3.5,-0.2 -2.6,1.5 5.8,10.5 17.7,15.7 29,10.7 13.4,-5.9 20.5,-20.9 24.4,-34.2 10.3,-35 7.4,-71.5 0.3,-106.8 -2,-10 -4.2,-20 -5.8,-30.1 -0.9,-5.4 -1.6,-10.8 -2.2,-16.2 -0.5,-5.7 -1.3,-11.7 0.6,-17.2 0.7,-1.5 -2.2,-2.3 -2.9,-0.5 z"
     id="path371"
     fill="#161616"
     style="fill-rule:nonzero;stroke:none;stroke-width:1" />
  <path
     d="m 932.1,541.7 c 0.3,5 0.3,11.4 -0.9,18.4 -3.2,19.2 -12.7,31.3 -17.1,36.1 -0.1,5.7 -0.3,14.5 0,25.1 1.2,47.6 8.6,70.9 9.8,93.2 1.2,21.7 -2.8,53.4 -27.8,94.4 3.3,0.3 8.5,0.3 13.9,-2.6 4.9,-2.6 12.5,-8.6 19.4,-28.7 6.3,-18.4 13.2,-52.1 5.5,-90.7 -3.4,-16.8 -8.6,-30 -11.3,-58.2 -0.7,-7.5 -1,-13.8 -1.2,-18.1 1.7,-4 4.2,-9.5 7.8,-15.5 5.9,-9.9 9.7,-13.2 10.7,-20.3 0.7,-5 -0.3,-10.1 -2.3,-15.1 0.2,-1.3 1,-6.6 -1.4,-11.8 -1.6,-3.7 -4,-5.5 -5.1,-6.2 z"
     id="path373"
     fill="#6d6c6c"
     opacity="0.1"
     style="fill-rule:nonzero;stroke:none;stroke-width:1" />
  <path
     d="M 922,617.99927 C 921.5,618.1 923.1,635.5 926.3,670.3 c 2.9,30.7 4.3,46 4.3,47.2 1,45.6 -13,77.8 -10.7,78.9 1.6,0.8 9.6,-15.4 14.2,-35 6.3,-27.1 3.8,-50.6 2.3,-64.1 -1.4,-11.9 -1.9,-8.6 -9,-49 -3.5,-20.3 -4.9,-30.4 -5.4,-30.30073 z"
     id="path375"
     fill="#6d6c6c"
     opacity="0.11"
     style="fill-rule:nonzero;stroke:none;stroke-width:1" />
  <path
     d="m 675.7,712.5 c -9.5,19.3 -12.2,36.3 -14.7,52.9 -1.4,9.1 -2.8,22 -2.7,37.6 31.2,8.3 59,12.8 81.8,15.2 29.6,3.2 20.9,-0.7 95.6,1.9 37.3,1.3 56.5,2.6 61.8,-7.6 4.4,-8.6 -6.4,-17.2 -7,-37 -0.5,-15.9 5.8,-28.9 10.8,-37 -29.5,-11.9 -63.6,-23.7 -102,-33.7 -38.2,-10 -73.6,-16.4 -105.1,-20.4 -5,5.9 -12.2,15.3 -18.5,28.1 z"
     id="path377"
     fill="#d6d6d6"
     style="fill-rule:nonzero;stroke:none;stroke-width:1" />
  <path
     d="m 678.3,709.1 c 7.3,14.6 22.7,39.6 51.4,53.6 11.2,5.5 23.9,9 61.3,10.9 24.2,1.2 57.8,1.8 98.5,-1.5 -0.6,8.7 1.2,14.9 2.9,19 2.6,6.1 6.2,9.6 5.8,16 -0.1,1.5 -0.3,5.3 -2.9,8.4 -3.6,4.2 -9.5,4.6 -12.4,4.7 -28.8,1.4 -38.7,0.4 -38.7,0.4 -24.2,-2.6 -45.7,-2 -63.5,-1.5 -7.7,0.2 -11.8,0.5 -20.1,0.4 -4.6,-0.1 -17.3,-0.4 -35.7,-2.9 -27.1,-3.7 -52.1,-10 -66,-13.9 -0.3,-17.9 1.3,-32.7 2.9,-43.4 2.5,-16.4 5.5,-25.5 6.6,-28.4 3.2,-9.2 6.9,-16.6 9.9,-21.8 z"
     id="path379"
     fill="#6d6c6c"
     opacity="0.12"
     style="fill-rule:nonzero;stroke:none;stroke-width:1" />
  <path
     d="m 667.3,735.3 c 3.9,7.9 10.6,19.1 21.9,29.5 19,17.4 39.5,22 63.8,27.7 51.5,12.2 104,26.1 103.6,28.4 -0.2,1.4 -19.8,-1.8 -53.6,-2.2 -8.2,-0.1 -13.5,-0.2 -21.2,0 -15,0.3 -19.1,1.1 -28.1,0.7 -9.7,-0.4 -16.8,-1.8 -24.4,-3.3 -30.5,-6.1 -60.9,-12.8 -70.7,-15 0.1,-6.4 0.5,-13.1 1.1,-20.1 1.5,-16.7 4.3,-32.1 7.6,-45.7 z"
     id="path381"
     fill="#6d6c6c"
     opacity="0.1"
     style="fill-rule:nonzero;stroke:none;stroke-width:1" />
  <path
     d="m 959.3,793.7 c -21.2,3 -33.3,3.6 -53.1,9.2 -9.2,2.6 -16.6,5.3 -21.5,7.3 -3.1,-8.7 -6.8,-22.8 -5.2,-40 0.9,-10.2 3.4,-18.7 6,-25.1 5.5,1.4 12.4,2.7 20.5,3.2 10.1,0.6 18.7,-0.2 25.2,-1.3 2.5,-9 4.9,-17.9 7.4,-26.9 4.5,-1.2 9.1,-2.5 13.6,-3.7 0.4,-2.5 0.9,-5 1.3,-7.5 5.6,2.6 14.5,6.8 25.6,11.5 20.9,9 23.9,9.3 28.4,13.3 12.1,10.9 17.9,32.6 9,45.1 -5.4,7.5 -22.7,10 -57.2,14.9 z"
     id="path383"
     stroke="#161616"
     stroke-width="2"
     fill="#ffffff"
     style="fill-rule:nonzero" />
  <path
     d="m 951.8,708.7 c -0.7,4.7 -1,9.4 -0.8,14.2 0.1,1.9 3.1,1.9 3,0 -0.2,-4.5 0.1,-8.9 0.7,-13.4 0.2,-1.9 -2.7,-2.7 -2.9,-0.8 z"
     id="path385"
     fill="#161616"
     style="fill-rule:nonzero;stroke:none;stroke-width:1" />
  <path
     d="m 984.4,734.2 c 0.8,3.7 -1.5,7 -4.7,8.5 -1.8,0.8 -0.2,3.4 1.5,2.6 4.6,-2.1 7.1,-7 6.1,-11.9 -0.4,-1.9 -3.3,-1.1 -2.9,0.8 z"
     id="path387"
     fill="#161616"
     style="fill-rule:nonzero;stroke:none;stroke-width:1" />
  <path
     d="m 973.1,733.2 c 1.1,0.1 2.3,0.4 3.2,1.2 0.2,0.2 0.4,0.4 0.6,0.6 0.6,-0.5 0.7,-0.8 0.2,-0.7 -0.3,-0.2 -1.1,-0.2 -1.4,-0.3 -0.5,-0.2 -1,-0.3 -1.5,-0.6 -0.3,-0.1 -0.5,-0.3 -0.8,-0.5 -0.8,0.5 -0.9,0.9 -0.2,1.1 0.4,0.4 1.2,0.8 1.7,1.1 0.6,0.4 1.1,0.7 1.7,1.1 1.6,1 2.8,-1.1 1.8,-2.4 -0.6,-0.8 -1.3,-1.2 -2.2,-1.6 -1.8,-0.7 -2.6,2.2 -0.8,2.9 0.4,0.2 0.6,0.5 0.9,0.8 0.6,-0.8 1.2,-1.6 1.8,-2.4 -1.4,-0.9 -2.7,-1.9 -4.1,-2.6 -1.1,-0.6 -2.5,-0.4 -3.2,0.7 -1.8,2.7 2.1,4.6 4.1,5.2 1.1,0.3 2.4,0.6 3.5,0.2 1.2,-0.4 1.8,-1.7 1.4,-2.9 -0.8,-2.6 -4.3,-3.7 -6.7,-3.9 -2,-0.1 -1.9,2.9 0,3 z"
     id="path389"
     fill="#161616"
     style="fill-rule:nonzero;stroke:none;stroke-width:1" />
  <path
     d="m 1002.4,729.6 c 4.3,1.2 11.4,3.8 18.3,9.2 2.4,1.9 7.6,6 10.7,11.9 5.9,11.2 3.2,26.9 -7.1,37.3 -10.1,10.1 -26.3,13.7 -41.4,9.2 6.5,-22.5 13,-45 19.5,-67.6 z"
     id="path391"
     fill="#f24088"
     style="fill-rule:nonzero;stroke:none;stroke-width:1;fill:#006699;fill-opacity:1" />
  <path
     d="m 1007.3,691.3 c -9.4,34.8 -18.8,69.6 -28.2,104.4 -1.5,5.6 7.2,8 8.7,2.4 9.4,-34.8 18.8,-69.6 28.2,-104.4 1.5,-5.6 -7.2,-8 -8.7,-2.4 z"
     id="path393"
     fill="#161616"
     style="fill-rule:nonzero;stroke:none;stroke-width:1" />
  <path
     d="m 986.9,774.4 c -1.6,-6.6 -5.8,-10.8 -10.7,-15.7 -10.4,-10.4 -15,-8.3 -21.5,-15.5 -10.2,-11.5 -2.1,-20.7 -12.2,-31.1 -8.6,-8.8 -21.6,-9.5 -24.6,-9.6 -2.9,-0.1 -14.6,-0.2 -23.6,7.5 -7.8,6.7 -10.7,16.8 -9.3,17.6 0.5,0.3 2,-0.4 6.8,-5.5 -1.5,1.5 -3.3,3.9 -4.4,7.1 -1.2,3.8 -1,7.5 -0.4,7.6 0.5,0.1 0.7,-2 2.8,-3.4 1.2,-0.8 2.6,-1.1 3.6,-1.1 -2.6,2.8 -5,6.5 -4.2,10.3 2,10.6 25.8,15.5 33.7,17.1 25.6,5.3 40.6,0.2 48.6,9.8 0.7,0.8 3.9,4.7 2.7,8.3 -1.6,4.6 -9.9,7.2 -14.9,5 -4.3,-1.9 -4.9,-6.8 -5.8,-6.6 -1.1,0.3 -0.5,8.5 4.3,16 1.8,2.7 3.2,4.9 6.1,6.4 5.1,2.5 11.6,1.2 15.5,-1.2 8.3,-4.7 9.3,-15.8 7.5,-23 z"
     id="path395"
     stroke="#161616"
     stroke-width="2"
     fill="#161616"
     style="fill-rule:nonzero" />
  <path
     d="m 952.3,779.5 c 0,-1.5 0.2,-3.7 0.8,-3.7 0.3,0 0.6,0.6 0.6,0.5 0,0 -2.2,-2.1 -2.2,-4.4 0,-1.1 0.5,-2 0.9,-2.5 -9.6,2.8 -21,5.5 -34,7.3 -14.3,2 -27.1,2.5 -38,2.3 -0.5,4.1 -0.8,9.9 0.6,16.8 1.1,5.6 3,10.2 4.7,13.6 15.5,-6.7 27.5,-9.5 35.6,-10.9 3.8,-0.6 12.8,-2 17.2,-2.6 8,-1.2 14.6,-2.1 19.1,-2.7 -0.5,-0.7 -1.3,-1.8 -2.1,-3.2 -1.1,-1.9 -3.2,-5.8 -3.2,-10.5 z"
     id="path397"
     fill="#6d6c6c"
     opacity="0.22"
     style="fill-rule:nonzero;stroke:none;stroke-width:1" />
  <path
     d="m 1034.2,764.3 c -3.2,8.9 -11.9,14.8 -21.4,14.7 -11.2,-0.2 -17.8,-8.8 -18.4,-9.6 -2.6,9.6 -5.1,19.3 -7.7,28.9 2.4,0.5 5.7,1 9.7,0.9 12.6,-0.3 21.2,-6 23,-7.3 2.8,-1.9 12,-8.9 14.3,-20.8 0.5,-2.8 0.5,-5.2 0.5,-6.8 z"
     id="path399"
     fill="#808080"
     opacity="0.393485"
     style="fill-rule:nonzero;stroke:none;stroke-width:1" />
  <path
     d="m 855.9,559.1 c 4.4,6.1 9.4,12.5 15.2,19.1 7.8,8.9 15.5,16.4 22.7,22.7 10.3,-10 21.2,-20.1 32.7,-30.4 10.9,-9.8 21.7,-19 32.3,-27.7 -2.5,-5.1 -5.9,-11 -10.4,-17 -8.8,-11.7 -18.5,-19.5 -25.9,-24.5 -16.9,11.9 -34.7,26.1 -52.3,43.2 -5,5 -9.7,9.8 -14.3,14.6 z"
     id="path401"
     fill="#ffffff"
     style="fill-rule:nonzero;stroke:none;stroke-width:1" />
  <path
     d="m 876.2,541.8 c 14.3,-14.2 29.6,-27.3 45.9,-39.1 1.5,-1.1 0.1,-3.7 -1.5,-2.6 -16.5,12 -32.1,25.2 -46.5,39.6 -1.4,1.4 0.7,3.5 2.1,2.1 z"
     id="path403"
     fill="#161616"
     style="fill-rule:nonzero;stroke:none;stroke-width:1" />
  <path
     d="m 921.4,502.1 c 14.4,10.9 26.5,24.4 35.9,39.8 1,1.6 3.6,0.1 2.6,-1.5 -9.7,-15.9 -22.2,-29.6 -37,-40.9 -1.5,-1.1 -3,1.5 -1.5,2.6 z"
     id="path405"
     fill="#161616"
     style="fill-rule:nonzero;stroke:none;stroke-width:1" />
  <path
     d="m 875.7,538.3 c -7.3,6.3 -14.3,13 -20.9,20.1 -1.3,1.4 0.8,3.5 2.1,2.1 6.6,-7.1 13.5,-13.8 20.9,-20.1 1.5,-1.3 -0.6,-3.4 -2.1,-2.1 z"
     id="path407"
     fill="#161616"
     style="fill-rule:nonzero;stroke:none;stroke-width:1" />
  <path
     d="m 855.2,561.2 c 11.4,14 23.6,27.2 36.7,39.7 1.4,1.3 3.5,-0.8 2.1,-2.1 -13,-12.5 -25.3,-25.7 -36.7,-39.7 -1.2,-1.6 -3.4,0.6 -2.1,2.1 z"
     id="path409"
     fill="#161616"
     style="fill-rule:nonzero;stroke:none;stroke-width:1" />
  <path
     d="m 895.2,601.5 c 21.1,-20.1 42.8,-39.5 65,-58.3 1.5,-1.2 -0.7,-3.4 -2.1,-2.1 -22.2,18.8 -43.9,38.3 -65,58.3 -1.4,1.3 0.7,3.4 2.1,2.1 z"
     id="path411"
     fill="#161616"
     style="fill-rule:nonzero;stroke:none;stroke-width:1" />
  <path
     d="m 867.6,560.2 c 6.8,8.8 13.9,17.4 21.2,25.7 1.3,1.5 3.4,-0.7 2.1,-2.1 -7.3,-8.4 -14.4,-17 -21.2,-25.7 -1.1,-1.6 -3.2,0.6 -2.1,2.1 z"
     id="path413"
     fill="#161616"
     style="fill-rule:nonzero;stroke:none;stroke-width:1" />
  <path
     d="m 869.8,560.2 c 15.2,-16.7 33.1,-30.4 50.9,-44.1 1.5,-1.2 0,-3.8 -1.5,-2.6 -18.1,13.8 -36.2,27.7 -51.5,44.5 -1.4,1.5 0.8,3.6 2.1,2.2 z"
     id="path415"
     fill="#161616"
     style="fill-rule:nonzero;stroke:none;stroke-width:1" />
  <path
     d="m 921,516.1 c 9.2,6.9 17.6,14.6 25.3,23.1 1.3,1.4 3.4,-0.7 2.1,-2.1 -7.9,-8.7 -16.5,-16.5 -25.9,-23.6 -1.6,-1.1 -3.1,1.5 -1.5,2.6 z"
     id="path417"
     fill="#161616"
     style="fill-rule:nonzero;stroke:none;stroke-width:1" />
  <path
     d="m 890.6,586.7 c 5.1,-0.2 9,-2.7 13,-5.7 5.2,-4 10.3,-8.1 15.3,-12.4 10.6,-8.9 20.7,-18.3 30.4,-28 1.4,-1.4 -0.8,-3.5 -2.1,-2.1 -8.4,8.5 -17.2,16.6 -26.2,24.5 -4.4,3.8 -8.9,7.5 -13.4,11.2 -4.9,3.9 -10.3,9.4 -17,9.6 -1.9,-0.1 -1.9,2.9 0,2.9 z"
     id="path419"
     fill="#161616"
     style="fill-rule:nonzero;stroke:none;stroke-width:1" />
  <path
     d="m 916.4,503 c -2.4,4.5 -5.9,11 -10,18.9 -10.2,19.8 -15.4,29.8 -17,36.1 -2.1,8.2 -3.7,22.6 4.8,42.9 -12.7,-13.5 -25.4,-27.1 -38.1,-40.6 20.1,-19.1 40.2,-38.2 60.3,-57.3 z"
     id="path421"
     fill="#6d6c6c"
     opacity="0.11"
     style="fill-rule:nonzero;stroke:none;stroke-width:1" />
  <path
     d="m 906,535.4 c 4.8,4.9 9.3,10.1 13.5,15.5 1.2,1.5 3.3,-0.6 2.1,-2.1 -4.2,-5.4 -8.7,-10.6 -13.5,-15.5 -1.3,-1.4 -3.4,0.7 -2.1,2.1 z"
     id="path423"
     fill="#e8e8e8"
     style="fill-rule:nonzero;stroke:none;stroke-width:1" />
  <path
     d="m 907.2,535 c 2.3,-1.5 4.7,-2.9 7,-4.4 1.2,-0.8 2.5,-2 3.9,-2.4 1.9,-0.7 0.7,-1.1 2.2,-0.3 1.8,0.9 3.8,4.8 5.1,6.4 1.9,2.4 3.7,4.7 5.6,7.1 1.2,1.5 3.3,-0.6 2.1,-2.1 -2.4,-3.1 -4.9,-6.2 -7.3,-9.3 -1.2,-1.6 -3.1,-5.4 -5.2,-5.9 -1.5,-0.3 -2.8,0.7 -4,1.5 -3.7,2.2 -7.3,4.6 -10.9,6.8 -1.6,1.1 -0.1,3.7 1.5,2.6 z"
     id="path425"
     fill="#e8e8e8"
     style="fill-rule:nonzero;stroke:none;stroke-width:1" />
  <path
     d="m 921.3,550.8 c 4.2,-1.8 7.9,-4.4 11.1,-7.6 1.4,-1.4 -0.8,-3.5 -2.1,-2.1 -3.1,3 -6.6,5.4 -10.5,7.1 -1.8,0.8 -0.3,3.4 1.5,2.6 z"
     id="path427"
     fill="#e8e8e8"
     style="fill-rule:nonzero;stroke:none;stroke-width:1" />
  <path
     d="m 914.5,540.7 c 1.3,-1.3 2.5,-2.6 4.5,-2.3 1.1,0.2 1.5,0.4 2.7,0.2 1,-0.2 1.3,-1.4 0.9,-2.2 -0.9,-1.5 -1.7,1 -1.7,1.9 0,0.8 0.3,1.7 0.9,2.3 1.5,1.6 3.7,1.2 5.5,0.4 1.8,-0.7 1,-3.6 -0.8,-2.9 -0.7,0.3 -1.4,0.5 -2.2,0.6 -0.3,-0.7 -0.3,-1.4 0,-2.1 0,-0.7 0.1,-1.3 -0.1,-2 -0.3,-1 -1.1,-1.9 -2.2,-2 -3.2,-0.4 -3.2,3.4 -2,5.4 0.3,-0.7 0.6,-1.5 0.9,-2.2 -0.8,0.1 -1.8,-0.5 -2.6,-0.5 -0.6,0 -1.3,0.2 -1.9,0.4 -1.6,0.6 -2.8,1.8 -3.9,3 -1.5,1.3 0.7,3.4 2,2 z"
     id="path429"
     fill="#e8e8e8"
     style="fill-rule:nonzero;stroke:none;stroke-width:1" />
  <path
     d="m 913,534.3 c 1.4,0.1 2.7,0 4,-0.3 1.9,-0.4 1.1,-3.3 -0.8,-2.9 -1.1,0.2 -2.1,0.3 -3.2,0.2 -0.8,-0.1 -1.5,0.7 -1.5,1.5 0,0.9 0.7,1.4 1.5,1.5 z"
     id="path431"
     fill="#e8e8e8"
     style="fill-rule:nonzero;stroke:none;stroke-width:1" />
  <path
     d="m 890.1,548.7 c 4.6,5.3 9.2,10.5 13.9,15.6 1.3,1.4 3.4,-0.7 2.1,-2.1 -4.7,-5.1 -9.4,-10.3 -13.9,-15.6 -1.2,-1.5 -3.3,0.6 -2.1,2.1 z"
     id="path433"
     fill="#e8e8e8"
     style="fill-rule:nonzero;stroke:none;stroke-width:1" />
  <path
     d="m 892.5,549.1 c 1,-1.8 1.5,-3.3 3.6,-3.4 1.8,-0.1 2.9,1.3 4.1,2.4 1.7,1.5 3.1,3.3 4.8,4.9 1.3,1.2 2.7,2.4 4.2,3.4 1.3,0.9 2.5,1.4 1.1,3.1 -0.8,1 -2.9,1.4 -4.1,1.8 -1.8,0.6 -1,3.5 0.8,2.9 2.7,-0.9 7,-2.3 7.9,-5.5 0.4,-1.3 0.1,-1.9 -0.8,-2.8 -1.9,-1.7 -4.5,-2.8 -6.4,-4.6 -3.2,-2.9 -6,-7.2 -10.1,-8.9 -3.9,-1.5 -5.9,2.1 -7.6,5.1 -1,1.7 1.6,3.3 2.5,1.6 z"
     id="path435"
     fill="#e8e8e8"
     style="fill-rule:nonzero;stroke:none;stroke-width:1" />
  <path
     d="m 862,537.5 c -3.4,1.4 -3.2,2.9 -7.5,5.7 -3.5,2.3 -4.7,2 -6.1,3.9 -1.6,2.1 -1.8,4.5 -1.8,6.1 -1.4,0 -3.9,0.3 -6.6,1.8 -0.8,0.4 -6,3.3 -7.5,9.6 -1,4.3 0.3,7.9 0.9,9.2 -1.4,1 -3.5,2.8 -4.4,5.7 -1.1,3.6 0.3,6.9 2.2,10.5 5.2,10.1 9.9,14.3 15.3,22.8 1.6,2.5 3.9,6.4 6.1,11.4 0.1,3.8 0.1,10 -0.9,17.5 -1.5,11.2 -4.4,19.3 -5.3,21.9 -4.5,13 -12.4,43.4 -13.2,71.3 -0.4,14.3 -0.8,37.2 11.8,60.6 4.7,8.8 11.7,21.2 25.9,26.3 2.2,0.8 18.7,6.7 30.2,-2.6 4.2,-3.4 6.3,-7.6 7.5,-10.5 0.3,-1.5 0.5,-3.8 0.4,-6.6 -0.4,-12.1 -7.6,-20.8 -10.1,-24.1 -8.7,-11.5 -11.3,-24.3 -15.8,-46 -2.8,-13.4 -2.2,-25 -0.9,-47.8 0.9,-15.6 2.7,-36.7 7,-61.8 2.1,-0.5 5,-1.5 7,-3.9 3,-3.7 1.2,-7.1 3.5,-13.6 1.7,-4.9 3.1,-4 6.1,-10.5 2.2,-4.7 4.1,-9 3.1,-14 -0.2,-1 -1.5,-6.9 -5.7,-8.3 -5.4,-1.9 -11.6,4.9 -13.1,6.6 -3.1,3.4 -4.5,7 -5.3,9.2 -3.1,-4 -6.3,-8.8 -9.2,-14.5 -1.3,-2.6 -2.5,-5.1 -3.5,-7.5 0.5,-2.2 1.2,-5.4 1.7,-9.3 0.6,-5.2 0.9,-7.9 0.1,-11.3 -0.6,-2.3 -1.8,-7.4 -5.7,-8.8 -2.1,-0.8 -4.8,0.3 -6.2,1 z"
     id="path437"
     fill="#ffffff"
     style="fill-rule:nonzero;stroke:none;stroke-width:1" />
  <path
     d="m 852.5,619.2 c -5,-7 -10.1,-14 -15,-21.1 -4.7,-6.8 -10.2,-16.4 -3.4,-23.9 1.3,-1.4 -0.8,-3.6 -2.1,-2.1 -5.3,5.8 -4.7,13.7 -1.4,20.4 5,10 12.9,19.1 19.4,28.2 1,1.6 3.6,0.1 2.5,-1.5 z"
     id="path439"
     fill="#161616"
     style="fill-rule:nonzero;stroke:none;stroke-width:1" />
  <path
     d="m 843.1,587.2 c -4.8,-5 -8.8,-11.8 -8.7,-18.9 0.1,-6.9 5.1,-12.1 11.7,-13.2 1.9,-0.3 1.1,-3.2 -0.8,-2.9 -7.1,1.2 -12.8,6.7 -13.8,13.9 -1.2,8.6 3.7,17.3 9.5,23.3 1.3,1.4 3.4,-0.8 2.1,-2.2 z"
     id="path441"
     fill="#161616"
     style="fill-rule:nonzero;stroke:none;stroke-width:1" />
  <path
     d="m 853.2,578.3 c -7.7,-8.6 -8.6,-21.2 -2.5,-30.9 1,-1.6 -1.6,-3.1 -2.6,-1.5 -6.9,10.9 -5.6,25 2.9,34.5 1.4,1.5 3.5,-0.6 2.2,-2.1 z"
     id="path443"
     fill="#161616"
     style="fill-rule:nonzero;stroke:none;stroke-width:1" />
  <path
     d="m 861.3,571.7 c -3.2,-7.8 -4.4,-16.5 -2.4,-24.8 1.1,-4.7 7.1,-13.6 11.9,-6.4 2,3 1.3,7.5 1,10.9 -0.5,6.4 -2.8,13.4 0.5,19.4 1.6,2.8 4,5.2 5.8,7.8 2.3,3.2 4.1,6.7 5.8,10.3 0.8,1.8 3.4,0.2 2.6,-1.5 -2.1,-4.6 -4.7,-8.9 -7.8,-12.9 -1.8,-2.4 -4.1,-4.6 -4.9,-7.6 -0.8,-2.9 0,-6.1 0.3,-9.1 0.8,-6.1 3.3,-17.5 -3.3,-21.6 -5.9,-3.7 -12.2,1.8 -14.1,7.2 -3.4,9.3 -2,20.2 1.6,29.2 0.8,1.7 3.7,0.9 3,-0.9 z"
     id="path445"
     fill="#161616"
     style="fill-rule:nonzero;stroke:none;stroke-width:1" />
  <path
     d="m 849.7,548.3 c 1.2,-3.5 5.6,-5.1 8.9,-3.4 1.7,0.9 3.2,-1.7 1.5,-2.6 -5,-2.7 -11.4,-0.1 -13.3,5.2 -0.7,1.8 2.2,2.6 2.9,0.8 z"
     id="path447"
     fill="#161616"
     style="fill-rule:nonzero;stroke:none;stroke-width:1" />
  <path
     d="m 888,586.1 c 1.1,-3.2 2.7,-6 5.1,-8.3 1,-0.9 2.1,-1.8 3.3,-2.5 2.8,-1.6 4,-1.6 7.1,-0.5 3.6,1.3 4.1,2.1 4.4,5.9 0.1,1.2 0.1,2.4 0,3.6 -0.3,3.8 -1.7,7.4 -3.5,10.7 -2.1,3.8 -4.7,7.3 -5.9,11.6 -1.8,6.5 -1.9,11.8 -8.9,14.9 -1.8,0.8 -0.2,3.4 1.5,2.6 3,-1.3 5.5,-3.3 7.2,-6.1 2.3,-3.7 2.1,-8.1 3.5,-12.1 1.6,-4.4 4.7,-8.1 6.7,-12.3 1.8,-4 2.7,-8.4 2.4,-12.8 -0.4,-6 -3.9,-11 -10.5,-10 -7.5,1.1 -13,7.8 -15.3,14.6 -0.7,1.7 2.2,2.5 2.9,0.7 z"
     id="path449"
     fill="#161616"
     style="fill-rule:nonzero;stroke:none;stroke-width:1" />
  <path
     d="m 888.6,622.2 c -2.8,18.2 -5.1,36.5 -6.7,54.8 -1.4,16.4 -2.3,32.9 -0.7,49.4 1.5,15.1 5.3,29.8 12.4,43.2 7.2,13.7 16.1,26.2 12.1,42.5 -0.5,1.9 2.4,2.7 2.9,0.8 3.4,-14.1 -1.8,-25.6 -8.5,-37.7 -8,-14.3 -13.4,-28.9 -15.5,-45.3 -2,-16.4 -1.3,-32.9 0,-49.3 1.6,-19.2 3.9,-38.4 6.9,-57.5 0.3,-2 -2.6,-2.8 -2.9,-0.9 z"
     id="path451"
     fill="#161616"
     style="fill-rule:nonzero;stroke:none;stroke-width:1" />
  <path
     d="m 850.1,619.3 c 2,4.4 1.5,9.3 1,14 -0.6,5.3 -1.4,10.6 -2.5,15.9 -1.8,9.3 -4.3,18.5 -6.7,27.7 -4.7,18.1 -9.2,36.2 -9.8,54.9 -0.6,18.5 1.8,37.6 7.9,55.1 5.1,14.6 14.1,28.7 28.6,35.2 13.7,6.1 30.6,3.2 39.4,-9.6 1.1,-1.6 -1.5,-3.1 -2.6,-1.5 -9.7,14 -29,13.7 -42,4.7 -14,-9.7 -20.4,-26.4 -24.2,-42.3 -4.2,-17.6 -5.3,-36 -3.3,-53.9 2,-17.6 7,-34.6 11.3,-51.7 2.3,-9.2 4.5,-18.4 5.8,-27.8 1.1,-7.3 2.6,-15.3 -0.6,-22.2 -0.5,-1.8 -3.1,-0.2 -2.3,1.5 z"
     id="path453"
     fill="#161616"
     style="fill-rule:nonzero;stroke:none;stroke-width:1" />
  <path
     d="m 840.9,555.8 c -0.4,5 -0.4,11.4 1.1,18.4 4.1,19.2 16.2,31.3 21.7,36.1 0.2,5.7 0.3,14.5 0,25.1 -1.5,47.6 -10.9,70.9 -12.5,93.2 -1.5,21.7 3.6,53.4 35.4,94.4 -4.3,0.3 -10.8,0.3 -17.7,-2.6 -6.2,-2.6 -15.9,-8.6 -24.7,-28.7 -8,-18.4 -16.8,-52.1 -7,-90.7 4.3,-16.8 11,-30 14.4,-58.2 0.9,-7.5 1.3,-13.8 1.5,-18.1 -2.2,-4 -5.4,-9.5 -10,-15.5 -7.5,-9.9 -12.4,-13.2 -13.6,-20.3 -0.9,-5 0.3,-10.1 2.9,-15.1 -0.3,-1.3 -1.2,-6.6 1.8,-11.8 2.2,-3.6 5.3,-5.4 6.7,-6.2 z"
     id="path455"
     fill="#6d6c6c"
     opacity="0.1"
     style="fill-rule:nonzero;stroke:none;stroke-width:1" />
  <path
     d="M 853.8,632.09926 C 854.5,632.2 852.4,649.6 848.3,684.4 c -3.7,30.7 -5.5,46 -5.5,47.2 -1.3,45.6 16.5,77.8 13.6,78.9 -2.1,0.8 -12.2,-15.4 -18.1,-35 -8.1,-27.1 -4.9,-50.6 -2.9,-64.1 1.7,-11.9 2.4,-8.6 11.4,-49 4.5,-20.3 6.3,-30.4 7,-30.30074 z"
     id="path457"
     fill="#6d6c6c"
     opacity="0.11"
     style="fill-rule:nonzero;stroke:none;stroke-width:1" />
  <path
     d="m 374.3,917.9 c -0.9,-2.4 -2.6,-5.9 -5.6,-9.4 -3.3,-3.9 -6.1,-5.3 -8.3,-6.9 -3.9,-3 -5.4,-6.7 -11.8,-34.4 -3,-13.2 -3.3,-14.7 -2.8,-17.4 1.3,-7 5,-9.4 6.9,-18.4 0.9,-4.3 0.9,-7.4 0.7,-13.2 -0.3,-8.8 -0.5,-17.8 -4.2,-28.1 -3.3,-9.5 -7.1,-20 -17,-24.7 -6.9,-3.2 -13.7,-2.1 -19.8,-1 -12.3,2.2 -15,6.8 -27.8,12.5 -6.4,2.8 -24.8,11 -46.6,9.7 -9.7,-0.6 -15.1,-2.7 -21.2,1 -6.4,4 -9.1,11.6 -11.1,17.4 -2.5,7.1 -3.1,13.3 -3.1,17.4 -1.3,4.3 -3.3,10.8 -5.6,18.8 -6.4,22.8 -6.4,27 -10.8,39.3 -4.4,12.5 -7.2,20.3 -13.9,29.2 -2.2,2.9 -2.3,2.6 -22.6,22.2 -10.4,10 -15.9,15.5 -18.4,24.7 -1,3.6 -2.6,9.3 0.3,13.2 0.9,1.1 3.8,4.4 21.5,3.8 8.2,-0.3 9.3,-1 17.7,-1.7 15.5,-1.3 27.6,0 33.7,0.7 5.8,0.6 10.6,1.5 13.9,2.1 3.2,0.3 8,0.9 13.6,2.4 10.1,2.8 13.2,5.9 22.2,9.7 5.5,2.3 16.8,7 30.6,6.6 9.4,-0.3 17,-2.8 21.9,-4.9 7.2,1.1 13.1,0.6 17,0 6.8,-1.1 12,-3.3 16.3,-5.2 5.2,-2.3 4.9,-2.8 11.5,-5.9 11.5,-5.6 13.4,-4.6 16.7,-7.6 2.4,-2.2 4.6,-5.7 5.9,-20.2 0.9,-7.7 1.4,-18.5 0.2,-31.7 z M 209,945.5 c 0.8,5.5 2.4,9.9 0,12.3 -3.1,3 -8.4,-1.3 -21.8,-0.6 -2.2,0.1 -3.5,0.3 -10,0.8 -5.7,0.4 -5.5,0.3 -9.1,0.6 -5.8,0.5 -6.3,0.8 -8.7,0.6 -4.3,-0.4 -6.5,-0.5 -8.3,-2.1 -2.9,-2.5 -3.4,-7.1 -2.8,-10.2 1,-6.2 6.1,-8.8 15.2,-16.3 3.8,-3.1 9.3,-7.9 15.5,-14.6 3.7,-4.9 7.3,-10 11,-15.3 1.7,-2.5 3.3,-4.9 4.9,-7.4 1.5,-4.1 3.4,-9.8 5.3,-16.7 5,-18.2 5.1,-29.5 6.8,-29.6 2,0 3.7,14.8 4.4,22.9 0.8,10.4 0.6,19 0.2,24.8 1,1.9 2.4,5.1 2.8,9.3 0.5,4.7 -0.4,8.5 -1.1,10.6 -5.4,13.5 -5.4,23.8 -4.3,30.9 z"
     id="Shape"
     fill="#ffffff"
     style="fill-rule:nonzero;stroke:none;stroke-width:1" />
  <path
     d="m 209.5,793 c -13.3,21.6 -4.8,47 -1,70.1 1.1,6.8 1.7,13.6 1.4,20.4 -0.2,3.2 -0.6,6.4 -0.2,9.7 0.4,3 1.5,5.7 2.2,8.6 1.9,7.5 -0.8,15.1 -2.3,22.4 -1.3,6.3 -2.6,12.6 -2.8,19 -0.4,10.1 2.1,20.9 9.4,28.2 8.1,8.1 19.9,6.8 29.6,11.9 10.1,5.4 19.6,9.9 31.2,11 5.7,0.5 11.6,0.3 17.2,-0.7 6,-1 11.6,-3.9 17.6,-4.9 5.7,-0.9 11.2,1.1 16.9,-0.4 6.4,-1.6 12.6,-5.2 18.6,-7.9 6.2,-2.8 12.4,-5.7 18.7,-8.5 4.1,-1.9 7.8,-3.6 8.8,-8.4 1.3,-6 0.6,-13.1 0.7,-19.2 0.2,-6.4 0.7,-12.8 0.3,-19.2 -0.2,-4.1 -0.8,-8.2 -2.5,-11.9 -2.6,-5.8 -8.1,-7.6 -11.7,-12.4 -7.1,-9.8 -10.7,-23.5 -12.7,-35.3 -0.6,-3.7 -1,-7.4 -1.3,-11.1 -0.2,-3.8 1.1,-6.2 2.5,-9.5 2,-4.7 3.3,-9.7 3.9,-14.7 1.6,-11.6 0.1,-23.5 -2.6,-34.8 -2.3,-9.6 -5.4,-20.3 -13.1,-27.1 -20.2,-17.8 -46.7,3.1 -65.4,11.9 -6.9,3.2 -14.1,5.3 -21.7,5.3 -7.3,0 -14.5,-1.4 -21.8,-0.9 -9.7,0.6 -19.8,5 -23.1,14.7 -0.6,1.8 2.3,2.6 2.9,0.8 4,-11.7 17.9,-13 28.4,-12.4 11.2,0.7 21.4,1.4 32,-2.8 18.2,-7.2 37.1,-25.4 58.2,-19 11.6,3.5 16.5,14.8 19.5,25.6 3,10.8 4.9,22 4.3,33.2 -0.3,5.5 -1.3,11 -3.1,16.3 -0.8,2.4 -1.9,4.8 -3.1,7.1 -1.3,2.6 -1,4.5 -0.8,7.5 0.7,10.8 3,21.4 6.9,31.5 1.7,4.4 3.6,8.8 5.9,13 2.5,4.4 5.9,6.2 9.4,9.6 8,7.6 5.9,21.1 5.6,31 -0.2,6.3 -0.4,12.6 -0.6,18.9 -0.1,4.2 -1,6.6 -4.6,8.7 -2.9,1.7 -6.2,2.9 -9.3,4.2 -5.6,2.6 -11.3,5.1 -16.9,7.7 -6.4,2.9 -12.8,6.6 -20.1,6.2 -4.8,-0.2 -8.7,-0.8 -13.4,0.5 -5.8,1.7 -11.3,3.8 -17.3,4.5 -11.5,1.4 -23.4,-0.4 -33.8,-5.4 -4.4,-2.1 -8.5,-4.9 -13,-6.9 -4.7,-2.1 -9.6,-2.6 -14.6,-3.8 -11.8,-2.8 -18.1,-14 -19.1,-25.4 -1.2,-13.6 4,-26.3 5.6,-39.6 0.9,-6.7 -2.6,-12.3 -3.1,-18.9 -0.4,-6.7 0.7,-13.3 0,-20.1 -2.5,-25.1 -15,-53 -0.5,-76.7 1.5,-1.8 -1.1,-3.3 -2.2,-1.6 z"
     id="path460"
     fill="#161616"
     style="fill-rule:nonzero;stroke:none;stroke-width:1" />
  <path
     d="m 211.4,792.7 c 17.5,-2.6 31.2,11.4 38.5,25.6 7,13.4 10.6,28.3 18.3,41.4 6.5,11 16,20.2 28.8,23 11.3,2.5 23.8,0.1 33.1,-6.9 12.5,-9.4 17.9,-24.9 20.7,-39.7 0.4,-1.9 -2.5,-2.7 -2.9,-0.8 -2.6,13.5 -7.2,28 -18.2,37 -11.1,9.1 -27.5,11 -40.4,4.5 -26.7,-13.3 -26.9,-49.6 -43.9,-71 -8.4,-10.6 -21.2,-18 -35,-16 -1.7,0.3 -0.9,3.2 1,2.9 z"
     id="path462"
     fill="#161616"
     style="fill-rule:nonzero;stroke:none;stroke-width:1" />
  <path
     d="m 317.1,888.1 c 0.1,0.2 0.2,0.3 0.3,0.5 0.1,-0.6 0.2,-1.2 0.2,-1.8 -0.2,0.2 -0.3,0.3 -0.5,0.5 0.6,-0.1 1.2,-0.2 1.8,-0.2 -1.7,-0.9 -2.5,-4.7 -3.1,-6.4 -0.9,-2.6 -1.5,-5.4 -2,-8.1 -0.3,-2.1 -1.7,-17.8 2.7,-16.3 1.3,0.5 2.3,5.9 2.7,7.3 0.7,2.7 1.1,5.5 1.4,8.3 0.3,2.7 0.3,5.4 0.4,8 0,1.2 0.1,2.4 0.1,3.6 0,0.6 0,1.2 -0.1,1.8 0.2,0.7 -0.1,1.2 -0.8,1.5 0.2,-1.9 -2.8,-1.9 -3,0 -0.2,2 1.4,3.6 3.5,3.4 2.9,-0.3 3.3,-3.5 3.3,-5.8 0.2,-5.4 -0.1,-11.1 -0.9,-16.4 -0.6,-4.4 -1.5,-10.7 -4.7,-14.1 -5.9,-6.4 -7.9,6.1 -8,9.5 -0.3,5.3 0.4,10.6 1.8,15.6 0.9,3 2.2,9.1 5.3,10.7 0.6,0.3 1.3,0.3 1.8,-0.2 0.2,-0.2 0.3,-0.3 0.5,-0.5 0.5,-0.5 0.6,-1.3 0.2,-1.8 -0.1,-0.2 -0.2,-0.3 -0.3,-0.5 -1,-1.8 -3.6,-0.3 -2.6,1.4 z"
     id="path464"
     fill="#161616"
     style="fill-rule:nonzero;stroke:none;stroke-width:1" />
  <path
     d="m 293.1,942.3 c 0.5,16 1.9,32 4.2,47.8 0.3,1.9 3.2,1.1 2.9,-0.8 -2.2,-15.6 -3.6,-31.3 -4.1,-47 -0.1,-1.9 -3.1,-1.9 -3,0 z"
     id="path466"
     fill="#161616"
     style="fill-rule:nonzero;stroke:none;stroke-width:1" />
  <path
     d="m 295.2,943 c 7.1,-10 19.8,-14.2 30.8,-18 12.1,-4.2 24.4,-7.4 37,-9.7 1.9,-0.3 1.1,-3.2 -0.8,-2.9 -14.4,2.6 -28.6,6.5 -42.3,11.6 -10.3,3.9 -20.8,8.3 -27.4,17.5 -1,1.6 1.6,3.1 2.7,1.5 z"
     id="path468"
     fill="#161616"
     style="fill-rule:nonzero;stroke:none;stroke-width:1" />
  <path
     d="m 295.7,943.6 c 11.8,6.3 23.3,11.1 36.9,7.5 13,-3.5 25.1,-10.8 35.3,-19.3 1.5,-1.2 -0.6,-3.3 -2.1,-2.1 -9.5,7.9 -20.5,14.5 -32.3,18.1 -13.4,4.1 -24.5,-0.3 -36.3,-6.7 -1.7,-1 -3.2,1.6 -1.5,2.5 z"
     id="path470"
     fill="#161616"
     style="fill-rule:nonzero;stroke:none;stroke-width:1" />
  <path
     d="m 342.3,941.2 c 0.8,3.9 1.6,7.9 2.4,11.8 0.4,1.9 3.3,1.1 2.9,-0.8 -0.8,-3.9 -1.6,-7.9 -2.4,-11.8 -0.4,-1.9 -3.3,-1.1 -2.9,0.8 z"
     id="path472"
     fill="#161616"
     style="fill-rule:nonzero;stroke:none;stroke-width:1" />
  <path
     d="m 349,938.4 c 0.4,3.7 0.7,7.4 1.1,11.1 0.2,1.9 3.2,1.9 3,0 -0.4,-3.7 -0.7,-7.4 -1.1,-11.1 -0.2,-1.9 -3.2,-2 -3,0 z"
     id="path474"
     fill="#161616"
     style="fill-rule:nonzero;stroke:none;stroke-width:1" />
  <path
     d="m 212.1,916.7 c -1.9,5.5 0,10.5 6.5,9.4 1.6,-0.3 3,-1 4.6,-1.5 0.9,-0.3 2.2,-0.8 3.2,-0.7 5.1,0.7 2.2,2.4 3.5,4.2 1.5,2 2.4,3 5.1,3 3.6,-0.1 10.7,-3.5 13.1,0.9 0.9,1.8 0,6.6 0,8.8 0,2.6 0.1,5.2 0.1,7.8 0.2,11.4 0.5,22.8 0.9,34.1 0.1,1.9 3.1,1.9 3,0 -0.7,-17.5 -1,-35.1 -1.1,-52.7 0,-0.5 -0.3,-1.1 -0.7,-1.3 -3.3,-1.5 -6.6,-2.2 -10.2,-1.7 -2.5,0.3 -3.6,1.3 -6,-0.1 -2.3,-1.3 -1.5,-2.1 -2.9,-3.9 -1.5,-1.9 -3.7,-2.3 -6,-2 -1.6,0.2 -2.9,0.9 -4.4,1.4 -0.8,0.3 -1.8,0.8 -2.7,0.8 -2.2,-0.1 -3.8,-3.5 -3,-5.6 0.5,-1.9 -2.4,-2.7 -3,-0.9 z"
     id="path476"
     fill="#161616"
     style="fill-rule:nonzero;stroke:none;stroke-width:1" />
  <path
     d="m 205.5,817.6 c 0.1,-11.5 3.8,-32.3 20.2,-28.3 1.9,0.5 2.7,-2.4 0.8,-2.9 -6.9,-1.7 -13.7,1.3 -18,6.8 -5.4,6.8 -6,16 -6,24.4 0,2 3,2 3,0 z"
     id="path478"
     fill="#161616"
     style="fill-rule:nonzero;stroke:none;stroke-width:1" />
  <path
     d="m 202.8,811.3 c -2.2,4.6 0.9,9.3 3.7,13.1 2.9,4 7.3,7.6 12.5,6.5 2.9,-0.6 4.9,-3.2 7.8,-3.7 3.2,-0.7 6.3,2.1 9.5,2 6.8,-0.3 10.9,-6.8 15.8,-10.4 1.5,-1.1 0.1,-3.7 -1.5,-2.6 -3.9,2.8 -6.9,7.2 -11.4,9.1 -4.7,2 -7.5,-1.5 -12,-1.2 -4.5,0.3 -7.1,4.9 -11.9,3.7 -4,-1 -12,-10.2 -9.8,-15 0.7,-1.7 -1.9,-3.3 -2.7,-1.5 z"
     id="path480"
     fill="#161616"
     style="fill-rule:nonzero;stroke:none;stroke-width:1" />
  <path
     d="m 203.6,809.5 c -4.8,21 -10.4,41.8 -16.7,62.3 -3,9.7 -5.8,19.8 -10.8,28.8 -4.3,7.7 -10.2,14.2 -16.5,20.3 -11,10.6 -23.7,20.6 -29.9,35 -2.5,5.8 -3.2,11.8 2.5,15.9 6.3,4.6 15.6,4.4 22.9,3.7 11.2,-1.1 22.3,-4.6 33.6,-3.7 10.8,0.9 21.1,5.3 31.9,2.1 1.8,-0.6 1.1,-3.4 -0.8,-2.9 -9.7,2.9 -19.2,-0.8 -28.9,-2 -8,-1 -16,0.3 -23.8,1.6 -9.4,1.6 -20,3.9 -29.3,0.6 -5.8,-2 -8.3,-6.3 -6.2,-12.2 1.4,-3.9 3.5,-7.6 5.9,-10.9 8.5,-12.2 20.9,-21 30.9,-31.9 11.2,-12.3 16.3,-27 21.2,-42.7 6.4,-20.9 12.1,-42 17,-63.3 0.4,-1.8 -2.5,-2.6 -3,-0.7 z"
     id="path482"
     fill="#161616"
     style="fill-rule:nonzero;stroke:none;stroke-width:1" />
  <path
     d="m 203.7,842.7 c -1.8,18.9 -3.8,38.3 -13.1,55.3 -4.1,7.6 -9.4,14.5 -15.6,20.4 -5.7,5.4 -12.3,9.7 -18.2,14.8 -4.4,3.8 -10.7,9.5 -11.1,15.8 -0.4,5.7 4.4,10.2 9.5,11.7 8.2,2.5 18.1,-0.5 26.5,-1 9.8,-0.5 19.7,-0.2 29.5,0.8 1.9,0.2 1.9,-2.8 0,-3 -9.1,-1 -18.3,-1.3 -27.5,-0.9 -3.9,0.2 -7.9,0.5 -11.8,0.9 -4.6,0.5 -9.5,1.6 -14.1,0.7 -5.7,-1.1 -10.6,-5.6 -8.2,-11.8 1.5,-3.7 4.7,-6.9 7.6,-9.6 5.3,-5 11.5,-8.9 16.9,-13.7 10.3,-8.9 18.4,-20.4 23.5,-33 6.1,-15.1 7.6,-31.5 9.2,-47.6 0.1,-1.7 -2.9,-1.7 -3.1,0.2 z"
     id="path484"
     fill="#161616"
     style="fill-rule:nonzero;stroke:none;stroke-width:1" />
  <path
     d="m 229.5,928 c 0.9,8.9 2.3,17.6 4.3,26.3 0.4,1.9 3.3,1.1 2.9,-0.8 -1.9,-8.4 -3.3,-16.9 -4.2,-25.6 -0.2,-1.8 -3.2,-1.8 -3,0.1 z"
     id="path486"
     fill="#161616"
     style="fill-rule:nonzero;stroke:none;stroke-width:1" />
  <path
     d="m 254.5,801.7 c 16,12.3 41.8,19.4 60.5,9 1.7,-0.9 0.2,-3.5 -1.5,-2.6 -17.8,9.8 -42.4,2.6 -57.4,-9 -1.7,-1.2 -3.2,1.4 -1.6,2.6 z"
     id="path488"
     fill="#161616"
     style="fill-rule:nonzero;stroke:none;stroke-width:1" />
  <path
     d="m 205.8,814.5 c -0.6,-7.2 0.8,-15.6 5.8,-21.1 5,-5.4 12.8,-4.9 19.6,-4.9 12.5,0.2 25.1,1.5 37,-2.9 1.8,-0.7 1,-3.6 -0.8,-2.9 -15.3,5.7 -31,1.2 -46.7,3.2 -13.7,1.8 -18.9,16.2 -17.9,28.6 0.1,1.9 3.1,2 3,0 z"
     id="path490"
     fill="#161616"
     style="fill-rule:nonzero;stroke:none;stroke-width:1" />
  <path
     d="m 206.4,817.4 c 1,-6.9 3.2,-13.4 7,-19.3 2,-3.1 4.1,-6 7.6,-7.3 3.4,-1.3 7.4,-0.8 11,-0.8 12.1,0.2 24.5,0.6 35.5,-5.2 1.7,-0.9 0.2,-3.5 -1.5,-2.6 -7.2,3.8 -15.1,4.8 -23.1,4.9 -6.8,0.1 -14.1,-1.1 -20.8,0.2 -11.7,2.3 -17.1,19.1 -18.6,29.2 -0.3,1.9 2.6,2.8 2.9,0.9 z"
     id="path492"
     fill="#161616"
     style="fill-rule:nonzero;stroke:none;stroke-width:1" />
  <path
     d="m 205.5,814.8 c 0.7,-9.1 1.8,-20.8 10.8,-25.8 4.9,-2.7 11.3,-2.1 16.7,-2.2 4.7,0 9.4,0.1 14.2,0 9.1,-0.2 18.2,-0.9 26.9,-3.9 8.3,-2.9 16,-7.4 23.5,-11.9 1.7,-1 0.2,-3.6 -1.5,-2.6 -9.1,5.4 -18.4,10.9 -28.8,13.3 -11.5,2.7 -23.4,2 -35.1,2.1 -8.6,0.1 -16.9,0.1 -22.7,7.4 -5.3,6.7 -6.1,15.4 -6.8,23.6 -0.3,1.9 2.7,1.9 2.8,0 z"
     id="path494"
     fill="#161616"
     style="fill-rule:nonzero;stroke:none;stroke-width:1" />
  <path
     d="m 273.9,783.9 c 4.3,4 -1.3,11.6 2.6,18.4 5.1,8.8 19.8,9.9 31,9.4 -5.9,1.6 -14.9,5.3 -19.9,13.6 -8.8,14.6 -2.7,39 18.4,56.2 1.9,15 3.8,30.1 5.8,45.1 -5.6,4.9 -11.2,9.8 -16.8,14.7 0.2,16.8 0.3,33.6 0.5,50.4 -5,1.8 -12.8,3.8 -22,2.6 -9.2,-1.1 -11.3,-4.3 -28.9,-11.5 -16.3,-6.7 -18.7,-5.6 -24.1,-10.5 -10,-8.9 -11.9,-21.4 -12.1,-22.6 -1.3,-9.2 2.4,-10.4 4.2,-28.9 0.9,-9.6 0.7,-17.2 0.5,-19.9 -0.4,-8.9 -1.5,-12.2 -2.6,-22 -1.4,-11.7 -0.7,-14.1 -1.6,-25.2 -2.2,-28.6 -8.1,-33.8 -4.2,-48.3 1.6,-5.9 3.5,-13.3 10,-17.3 8.1,-5.1 14,0.9 31,-0.5 16.3,-1.4 23.8,-8 28.2,-3.7 z"
     id="path496"
     fill="#6d6c6c"
     opacity="0.05"
     style="fill-rule:nonzero;stroke:none;stroke-width:1" />
  <path
     d="m 218.3,790.7 c -11.1,2.1 -18.8,19.5 -13.6,29.9 1.7,3.4 5.6,7.8 10.5,8.4 4,0.5 5,-2.1 11,-2.6 6.1,-0.5 7.2,1.9 12.1,1 3.6,-0.6 8.9,-3.1 10.5,-7.3 2.8,-7.5 -7.4,-16.6 -11,-19.9 -5.7,-5.1 -12.1,-10.9 -19.5,-9.5 z"
     id="path498"
     fill="#6d6c6c"
     opacity="0.11"
     style="fill-rule:nonzero;stroke:none;stroke-width:1" />
  <path
     d="m 211.5,857.4 c 2.4,-0.4 7.9,32.5 19.4,64.6 10.8,29.9 24.5,52.8 35.2,68.2 -8.6,-4.3 -15.9,-6.9 -21,-8.4 -6.7,-2 -11.6,-2.8 -18.4,-6.3 -5,-2.6 -8.7,-5.4 -11,-7.3 -2.2,-2.8 -5.3,-7.4 -6.3,-13.6 -0.4,-2.3 -0.3,-3.4 0.5,-13.6 1.1,-14.8 1.1,-15.3 1.6,-17.8 1.5,-8.2 2.8,-8.1 3.1,-13.6 0.4,-5.2 -0.7,-6.2 -2.1,-16.3 -1.2,-8.8 -1.4,-15.5 -1.6,-19.9 -0.2,-10 -0.4,-15.9 0.6,-16 z"
     id="path500"
     fill="#6d6c6c"
     opacity="0.14"
     style="fill-rule:nonzero;stroke:none;stroke-width:1" />
</svg>
